<?xml version="1.0" encoding="UTF-8"?>
<svg id="Layer_1" data-name="Layer 1" xmlns="http://www.w3.org/2000/svg" viewBox="0 0 1952.29 1952.5">
  <defs>
    <style>
      .cls-1 {
        fill: #344e41;
      }
    </style>
  </defs>
  <path class="cls-1" d="M1438.68,1004.43l-167.98-238c-6.18,2.07-12.34,4.31-18.36,6.73-1.14.46-2.28.91-3.42,1.39-6.66,2.69-13.22,5.61-19.65,8.71-19.08,9.1-37.23,19.81-54.31,31.92-30.74,21.75-58.01,48.09-80.76,78.03-1.98,2.58-3.92,5.22-5.81,7.89l-.23-.3-5.86-7.14-.39-.46-62.86-79.28c-8.21-10.35-20.13-17.33-33.04-19.68-3.12-.57-6.29-.84-9.51-.84h-290.35c4.95-7.82,10.19-15.41,15.76-22.8,62.64-83.32,162.28-137.27,274.28-137.27,104.64,0,198.46,47.09,261.42,121.21.89-.36,14.87-5.91,19.5-7.55-66.6-81.4-167.8-133.46-280.91-133.46-123.7,0-233.15,62.25-298.65,157.06-5.13,7.41-9.99,15-14.55,22.8h-90.61c-18.56,0-31.94,18.24-24.58,35.23,5.72,13.2,16.14,31.06,34.18,45.03h-45.99c-18.58,0-31.97,18.26-24.6,35.27,10.03,23.14,34.61,60.72,89.25,66.26,2.26,7.32,6.52,18.58,13.93,30.39,3.51,43.78,14.82,85.37,32.54,123.4,4.15,8.89,8.64,17.6,13.48,26.08,62.43,109.81,180.52,184.03,315.62,184.03,108.08,0,205.28-47.52,271.79-122.76,5.7-6.43,11.17-13.09,16.39-19.95.57-.71,1.12-1.44,1.66-2.17.16-.21.32-.43.5-.68.62-.82,1.19-1.64,1.76-2.49,8.92-13.61,10.83-30.65,6.36-46.29-1.05-3.72-2.19-7.41-3.37-11.08-11.72-35.94-29.46-69.16-52.01-98.5,11.24-2.62,22.94-3.99,34.95-3.99,20.68,0,40.43,4.04,58.51,11.36,6.34,2.58,12.47,5.54,18.38,8.89,4.29,2.42,8.44,5.04,12.47,7.84.05.02.07.02.09.09,6.54,4.49,12.72,9.51,18.45,15.03.18.11,6.13,5.72,9.28,8.69,1.69,1.6,3.72,2.87,6,3.4,5.31,1.19,8.25-1.94,11.7-4.54,1.89-1.5,3.76-3.06,5.61-4.63.14-.07.25-.16.39-.36,13.93-11.74,26.65-24.92,37.99-39.29l.05-.02c1.87-2.44,3.74-4.88,5.56-7.36,5.56-7.64,5.95-18.22.16-25.67-.05-.07-.11-.11-.16-.18ZM568.07,819.85c-.98-2.23,1.8-4.36,4.29-4.36h404.13c1.19,0,2.33.05,3.49.21,8.44.93,16.39,5.27,21.71,11.99l69.07,87.01,3.74,4.7s-.02.02-.02.07l.78,1c-1.25,1.98-2.51,4.01-3.72,6.02-3.6,5.93-7.02,11.97-10.24,18.13-5.47,10.28-10.44,20.86-14.89,31.69l-3.03-3.85-19.2-24.63-12.7-16.28-18.13-23.26-10.81-13.86c-2.49-3.17-5.31-6.02-8.37-8.53-6.54-5.36-14.3-9.12-22.57-10.97-3.74-.82-7.62-1.28-11.49-1.28-.46,0-288.71-.16-289.17-.16-.68,0-1.35,0-2.01-.05-7.25-.09-13.91-.84-20.04-2.14-34.36-7.21-51.94-30.99-60.81-51.46ZM1382.25,1058.81c-.8.71-1.55,1.37-2.35,1.96-1.46-1.46-2.94-2.85-4.45-4.24-5.31-4.95-10.92-9.53-16.83-13.79-7.41-5.34-15.23-10.12-23.42-14.32-6.09-3.1-12.36-5.86-18.83-8.28-19.36-7.18-40.31-11.13-62.16-11.13-7.05,0-13.98.43-20.79,1.21-1.71.21-3.4.41-5.06.66-8.48,1.23-16.76,3.06-24.79,5.43-1.82.55-3.63,1.12-5.43,1.71-.89,2.33-1.64,4.7-2.26,7.11-.96,3.76-1.55,7.62-1.85,11.49,27.45,32.49,48.32,70.71,60.52,112.57.55,1.85,1.07,3.69,1.57,5.54,1.96,9.69-.14,20.02-6.41,28.27-2.87,3.81-5.84,7.55-8.87,11.22-6.32,7.66-12.95,15.03-19.91,22.12-62.27,63.5-149.01,102.97-244.77,102.97-134.42,0-251.02-77.71-307.2-190.58-4.24-8.46-8.12-17.1-11.61-25.95-8.96-22.46-15.6-46.06-19.63-70.55,11.81,9.76,27.07,17.81,46.54,21.5,3.44.68,7,1.19,10.72,1.57,1.05,3.42,2.53,7.68,4.58,12.5,11.26,26.36,39.26,68.38,103.59,68.38h213.08c.96,0,1.92-.14,2.8-.39,4.74-1.21,8.25-5.54,8.25-10.67s-3.69-9.74-8.71-10.81c-.75-.16-1.55-.25-2.35-.25h-213.08c-55.29,0-77-37.46-84.75-58.03h230.8c5.27,0,10.06-3.56,11.13-8.73,1.46-7.09-3.94-13.36-10.83-13.36h-240.76c-3.44,0-6.75-.14-9.92-.43-34.25-2.96-53.99-21.21-65.12-38.42-4.49-6.91-7.59-13.66-9.69-19.2h263.95c5.97,0,11.33-4.49,11.63-10.47.3-6.36-4.74-11.63-11.01-11.63h-274.51c-48.91-.18-71.8-29.25-82.4-53.67-.98-2.21,1.8-4.36,4.31-4.36h404.13c4.42,0,8.8.96,12.79,2.76,4.13,1.82,7.87,4.54,10.9,7.96.43.48.87,1,1.28,1.53,4.17,5.36,9.26,11.88,15.05,19.29.11.16.23.3.34.46,15.39,19.75,35.68,45.74,56.87,72.9,5.5,7.02,11.06,14.16,16.62,21.3,2.44-8.6,5.2-17.06,8.3-25.33,5.56-15.12,12.2-29.73,19.77-43.8,3.26-6.07,6.7-12.02,10.33-17.85,5.06-8.23,10.47-16.21,16.19-23.96,28.78-36.21,59.6-62.8,81.88-79.55,22.53-15.71,46.97-28.78,72.92-38.76l14.87,21.21,48.66,69.41,93.85,133.89c-11.17,15.3-24.12,29.28-38.47,41.61Z"/>
  <path class="cls-1" d="M1707.9,916.87l-.13-1.52c-12.83-157.5-74.77-303.62-179.14-422.51l-1.02-1.19,103.86-170.59-170.63,103.86-1.19-1.06c-118.89-104.33-264.96-166.27-422.47-179.14l-1.52-.13L976.19,0l-59.53,244.6-1.52.13c-157.46,12.87-303.58,74.81-422.42,179.14l-1.19,1.06-1.31-.85-169.32-103.01,103.86,170.59-1.02,1.19c-104.37,118.93-166.31,265-179.14,422.51l-.13,1.48-1.48.38L0,976.31l244.47,59.45.13,1.52c12.83,157.55,74.77,303.62,179.18,422.55l1.02,1.14-103.9,170.63,170.67-103.86,1.14,1.02c118.89,104.37,264.96,166.31,422.47,179.14l1.52.13,59.49,244.47,59.49-244.47,1.52-.13c157.5-12.83,303.58-74.77,422.42-179.14l1.19-1.02,1.31.8,169.36,103.05-103.86-170.63,1.02-1.19c104.37-118.89,166.31-265,179.14-422.51l.13-1.52,1.48-.38,242.9-59.06-244.39-59.44ZM1686.39,1016.7c-.42,3.47-1.52,13.13-2.92,27.9-6.9,72.91-24.81,143.36-52.88,209.45-28.03,66.09-66.3,127.91-113.98,183.54-11.98,14.01-24.77,27.86-38.02,41.11-13.25,13.25-27.06,26.04-41.11,38.06-111.31,95.31-247.18,153.02-393,166.82-16,1.52-24.73,2.58-27.9,3.01l-40.39,166.06-40.43-166.06c-3.18-.42-11.85-1.48-27.86-3.01-145.82-13.8-281.69-71.51-393-166.82-14.06-12.02-27.86-24.81-41.11-38.06-13.17-13.17-25.95-26.97-38.02-41.07-95.35-111.35-153.02-247.26-166.86-393.04-1.52-16-2.58-24.73-2.96-27.9l-166.14-40.39,166.14-40.39c.38-3.18,1.44-11.9,2.96-27.9,13.85-145.78,71.51-281.69,166.86-393,12.07-14.14,24.9-27.94,38.02-41.07,13.17-13.17,26.97-25.95,41.07-38.06,111.31-95.31,247.22-153.02,393-166.82,8.93-.89,18.21-1.57,27.65-2.12l40.69-167.12,40.65,167.12c9.44.55,18.76,1.23,27.69,2.12,145.78,13.8,281.69,71.51,393,166.82,14.1,12.11,27.9,24.9,41.07,38.06,13.25,13.21,26.04,27.05,38.02,41.07,95.35,111.31,153.02,247.22,166.86,393,1.4,14.78,2.5,24.43,2.92,27.9l166.1,40.39-166.1,40.39Z"/>
  <g>
    <path class="cls-1" d="M513.61,657.48l-22.04,29.28-7.05-5.3c1.41-3.19,2.22-5.89,2.42-8.11.2-2.22-.15-4.36-1.05-6.43-.9-2.06-2.25-4.51-4.05-7.34l-54.7-84.09,13.08-17.38,97.08,30.38c2.82.81,5.3,1.33,7.43,1.54,2.13.22,4.09,0,5.86-.62,1.78-.62,3.63-1.68,5.57-3.17l7.05,5.3-27.34,36.33-7.05-5.3c2.07-3.84,2.65-6.79,1.76-8.86-.9-2.06-3.11-3.69-6.64-4.87l-82.74-25.97,2.01-2.66,48.33,71.69c2.37,3.59,4.64,5.25,6.79,4.99,2.15-.26,4.9-1.83,8.22-4.73l7.05,5.3ZM511.95,597.11l-31.35,41.65-8.61-6.48,31.35-41.66,8.61,6.48Z"/>
    <path class="cls-1" d="M531.41,462.1l62.04,75.35c2.41,2.93,4.8,4.55,7.19,4.87,2.38.32,5.34-.55,8.89-2.62l5.61,6.81-34.95,28.78-5.61-6.81c2.71-3.08,4.16-5.79,4.34-8.14.18-2.35-.93-4.99-3.34-7.91l-49.08-59.61c-2.41-2.92-4.8-4.55-7.19-4.87-2.38-.32-5.3.6-8.76,2.77l-5.61-6.81,26.48-21.8ZM573.13,515.85l-6.98-8.47,9.49-8.83c5.7-5.2,9.11-10.67,10.22-16.41,1.11-5.74-.57-11.33-5.06-16.78-3.07-3.73-6.44-6.12-10.1-7.17s-7.57-.96-11.72.26c-4.16,1.22-8.28,3.35-12.38,6.39l-9.15,6.77-7.1-8.63,10.59-8.72c7.47-6.14,14.78-10.47,21.93-12.98,7.16-2.51,13.88-3.08,20.15-1.74,6.28,1.35,11.66,4.75,16.14,10.2,4.4,5.35,6.78,11.22,7.14,17.61.36,6.4-1.12,12.82-4.44,19.27-3.32,6.46-8.31,12.42-14.96,17.9l-13.77,11.34ZM581.38,499.66l14.38-17.68,38.58,15.71c5.09,2.07,9.34,3.27,12.74,3.6,3.41.33,7.17-.28,11.32-1.83l5.61,6.81-22.39,18.44-60.23-25.05Z"/>
    <path class="cls-1" d="M623.58,393.14l36.46-18.66,4.83,9.42-12.91,6.61c-4.42,2.26-7.16,5.57-8.23,9.94-1.07,4.37-.5,9.28,1.72,14.76l-8.37,4.28-13.49-26.34ZM721.79,452.51c1.73,3.37,3.72,5.47,5.98,6.3,2.26.83,5.28.64,9.07-.57l4.02,7.85-40.13,20.55-4.02-7.85c3.31-2.43,5.3-4.77,5.98-7.02.68-2.25.16-5.07-1.57-8.44l-44.57-87.05,20.76-10.63,44.48,86.88ZM710.1,348.84l13.49,26.34-8.37,4.29c-3.38-4.87-7.09-8.18-11.14-9.93-4.05-1.74-8.29-1.48-12.7.78l-11.86,6.07-4.83-9.42,35.41-18.13Z"/>
    <path class="cls-1" d="M852.65,329.11c-1.05-4.31-2.59-7.17-4.61-8.56-2.02-1.39-5.12-1.84-9.31-1.36l-2.09-8.57,35.61-8.68,2.09,8.57c-3.81,1.47-6.27,3.38-7.38,5.73-1.11,2.36-1.21,5.38-.31,9.06l12.54,51.41c2.2,9.01,2.27,17.33.24,24.96-2.04,7.63-6.07,14.16-12.07,19.59-6.01,5.43-13.77,9.31-23.29,11.63-9.65,2.35-18.44,2.55-26.38.59-7.94-1.96-14.63-5.81-20.07-11.55-5.43-5.73-9.23-13.05-11.4-21.93l-12.86-52.74c-.9-3.68-2.29-6.2-4.16-7.56-1.88-1.36-4.85-1.81-8.9-1.36l-2.09-8.57,43.8-10.68,2.09,8.57c-3.68,1.44-6.18,3.19-7.49,5.26-1.31,2.07-1.5,5-.57,8.82l12.95,53.12c2.69,11.04,7.26,18.6,13.7,22.68,6.44,4.08,14.23,5,23.37,2.77,9.01-2.2,15.12-6.64,18.33-13.35,3.21-6.7,3.54-15.25,1-25.66l-12.72-52.17Z"/>
    <path class="cls-1" d="M948.67,415.43l-36.64.59-.14-8.82c3.38-.84,6.01-1.86,7.89-3.07,1.87-1.21,3.35-2.8,4.43-4.78,1.08-1.98,2.18-4.54,3.3-7.69l32.77-94.81,21.75-.36,35.65,95.27c1.09,2.73,2.2,5,3.35,6.81,1.14,1.81,2.5,3.23,4.09,4.24,1.58,1.03,3.56,1.84,5.92,2.46l.14,8.82-45.46.74-.14-8.82c4.3-.72,6.99-2.08,8.07-4.05,1.08-1.98,1-4.72-.23-8.23l-30.33-81.25,3.33-.05-26.9,82.17c-1.37,4.07-1.29,6.88.24,8.43,1.53,1.54,4.46,2.74,8.78,3.58l.14,8.82ZM995.29,377.03l-52.13.84-.17-10.78,52.13-.84.17,10.78Z"/>
    <path class="cls-1" d="M1114.19,310.49l-22.1,95.07c-.86,3.69-.69,6.58.5,8.67,1.19,2.09,3.68,3.91,7.48,5.46l-2,8.59-44.1-10.25,2-8.59c4.09.28,7.12-.22,9.1-1.51,1.98-1.28,3.39-3.77,4.25-7.46l17.49-75.22c.86-3.69.69-6.58-.5-8.67s-3.7-3.85-7.53-5.27l2-8.59,33.41,7.77ZM1096.88,376.28l2.48-10.69,12.78,2.16c7.6,1.36,14.01.74,19.24-1.86,5.23-2.61,8.65-7.35,10.25-14.22,1.09-4.71.95-8.84-.44-12.38-1.39-3.54-3.84-6.59-7.33-9.15-3.5-2.56-7.7-4.54-12.6-5.95l-10.94-3.15,2.53-10.88,13.36,3.11c9.42,2.19,17.3,5.36,23.64,9.52,6.34,4.16,10.89,9.14,13.63,14.94,2.74,5.8,3.32,12.14,1.72,19.01-1.57,6.75-4.78,12.2-9.64,16.37-4.86,4.17-10.86,6.9-18,8.19-7.14,1.29-14.91.96-23.31-.99l-17.37-4.04ZM1114.75,372.99l22.78.67,10.98,40.18c1.45,5.3,3.08,9.4,4.89,12.3,1.8,2.91,4.58,5.53,8.33,7.87l-2,8.59-28.25-6.57-16.73-63.05Z"/>
    <path class="cls-1" d="M1253.82,378.31l-31.23,70.41c-1.54,3.46-1.92,6.33-1.14,8.6.78,2.27,2.88,4.54,6.32,6.77l-3.58,8.06-41.38-18.36,3.58-8.06c3.97,1.05,7.04,1.12,9.22.23,2.18-.89,4.04-3.06,5.58-6.53l31.31-70.59c1.54-3.46,1.91-6.33,1.14-8.6-.78-2.28-2.91-4.47-6.4-6.59l3.58-8.06,41.38,18.36-3.58,8.06c-3.92-1.17-6.96-1.3-9.15-.41-2.18.89-4.06,3.13-5.66,6.71Z"/>
    <path class="cls-1" d="M1382.71,457.94c2.56-3.63,3.7-6.66,3.42-9.1-.29-2.44-1.98-5.07-5.09-7.91l5.09-7.21,29.94,21.13-5.09,7.21c-3.61-1.91-6.67-2.51-9.17-1.79s-4.85,2.62-7.03,5.71l-30.51,43.23c-5.35,7.58-11.57,13.1-18.66,16.58-7.09,3.47-14.65,4.73-22.7,3.78-8.04-.96-16.06-4.26-24.07-9.91-8.11-5.73-14.04-12.23-17.78-19.51-3.74-7.27-5.23-14.85-4.48-22.71.75-7.86,3.76-15.53,9.04-23.01l31.3-44.35c2.18-3.09,3.17-5.8,2.96-8.1-.21-2.31-1.82-4.84-4.83-7.6l5.09-7.21,36.83,25.99-5.09,7.21c-3.51-1.83-6.47-2.56-8.89-2.2-2.42.37-4.76,2.16-7.02,5.36l-31.53,44.67c-6.55,9.29-9.25,17.7-8.1,25.23,1.16,7.53,5.58,14.01,13.27,19.44,7.58,5.35,14.95,7.03,22.1,5.05,7.16-1.98,13.83-7.35,20.01-16.1l30.97-43.88Z"/>
    <path class="cls-1" d="M1525.56,609.2l-53.48,53.25c-2.72,2.87-4.26,5.75-4.62,8.64-.36,2.89.29,5.77,1.94,8.64l-6.86,5.54-27.57-34.16,6.86-5.54c3.11,2.19,5.8,3.13,8.06,2.81,2.27-.31,5.48-2.58,9.64-6.78l50.77-50.05.49.61-95.16,35-10.46-12.96,55.53-88.15.86,1.07-62.81,41.38c-3.89,2.47-6.15,5.13-6.77,7.99-.63,2.86.02,6.11,1.96,9.76l-6.86,5.54-23.63-29.28,6.86-5.54c2.72,2.34,5.42,3.81,8.1,4.42,2.68.61,5.82-.29,9.42-2.69l62.78-41.11c3.3-2.15,5.42-4.46,6.38-6.91.96-2.45.45-5.32-1.52-8.6l6.86-5.54,24.37,30.19-59.98,94.51-6.99-8.97,104.63-38.87,23.76,29.43-6.86,5.54c-2.63-2.41-5.23-3.51-7.81-3.27-2.58.23-5.21,1.6-7.89,4.11Z"/>
  </g>
  <g>
    <path class="cls-1" d="M418.27,1181.46l-48.98,18.6-5.39-14.19,3.65-1.39c.92,1.44,1.86,2.4,2.81,2.87.95.48,2.21.41,3.78-.18l31.95-12.13c1.57-.6,2.59-1.37,3.06-2.32.48-.95.5-2.31.08-4.06l3.65-1.39,5.39,14.19ZM397.74,1200.2l.97-.37c1.17,3.08,1.7,6.02,1.58,8.82-.11,2.8-.83,5.22-2.15,7.27-1.33,2.05-3.2,3.54-5.64,4.46-2.7,1.03-5.36,1.15-7.97.38-2.61-.77-5.04-2.39-7.27-4.85-2.23-2.46-4.12-5.72-5.66-9.77l-2.74-7.22,4.62-1.75,2.06,4.69c.97,2.23,2.1,4.07,3.4,5.53,1.29,1.46,2.76,2.41,4.39,2.88s3.39.34,5.28-.38c2.05-.78,3.53-1.91,4.42-3.39.89-1.48,1.33-3.29,1.33-5.42,0-2.13-.45-4.52-1.32-7.15l-1.15-3.74,4.22-1.6,1.72,3.8c1.61,3.59,3.46,6.03,5.56,7.31,2.09,1.28,4.52,1.39,7.27.35,2.54-.97,4.14-2.65,4.8-5.07.66-2.41.49-5.19-.52-8.34l-1.51-4.71,4.38-1.66,2.28,6c1.37,3.62,2.1,7.04,2.18,10.26.07,3.22-.54,6-1.84,8.35-1.3,2.35-3.31,4.04-6.01,5.07-2.16.82-4.31.99-6.45.5-2.13-.49-4.1-1.6-5.9-3.32-1.8-1.73-3.25-4.03-4.33-6.89Z"/>
    <path class="cls-1" d="M439.93,1232.69l-47.09,22.98-6.65-13.64,3.51-1.71c1.05,1.48,2.06,2.39,3.06,2.71.99.32,2.25.11,3.75-.62l30.71-14.99c1.51-.73,2.46-1.6,2.84-2.59s.29-2.34-.29-4.06l3.51-1.71,6.66,13.64ZM413.83,1267.23l1.36,4.16-12.76,3.91-12.25-25.1,4.06-1.98,8.04,14.9c1.29,2.39,2.84,3.85,4.65,4.39,1.8.53,4.11.44,6.91-.28ZM411.85,1239.43l4.05-1.98,11.06,20.09-6,2.93-9.11-21.04ZM449.82,1252.96l-11.77,5.74-1.83-3.74c2.29-1.37,3.75-2.91,4.37-4.59s.52-3.45-.32-5.3l-6.95-15.82,3.98-1.94,12.52,25.65Z"/>
    <path class="cls-1" d="M471.76,1298.04l3.32-2.04,8.41,13.67-3.32,2.05c-1.1-1.36-2.23-2.11-3.37-2.25-1.15-.15-2.43.22-3.86,1.1l-36.57,22.5-3.91-6.36,19.93-48.22,1.64,1.84-28.07,17.27c-1.72,1.06-2.68,2.19-2.86,3.39-.18,1.19.03,2.56.63,4.09l-3.32,2.05-8.54-13.89,3.32-2.05c1.07,1.18,2.15,1.92,3.25,2.22,1.1.31,2.35.03,3.73-.81l28.59-17.59c1.28-.79,2.2-1.76,2.74-2.91.55-1.15.43-2.58-.33-4.28l3.32-2.04,7.32,11.89-19.99,47.95-2.81-2.75,28.44-17.5c1.72-1.06,2.72-2.15,2.98-3.26.26-1.11.04-2.47-.67-4.07Z"/>
    <path class="cls-1" d="M492.69,1337.3l-27.47,20.19c-1.35.99-2.13,2.01-2.33,3.06-.2,1.05.11,2.38.94,3.99l-3.14,2.31-11.87-16.15,3.15-2.31c1.29,1.27,2.46,1.98,3.49,2.12,1.03.14,2.22-.29,3.58-1.28l27.54-20.24c1.35-.99,2.13-2.01,2.33-3.06.2-1.05-.14-2.36-1.01-3.94l3.15-2.31,11.86,16.15-3.15,2.31c-1.25-1.31-2.39-2.03-3.42-2.17-1.04-.14-2.25.31-3.65,1.34Z"/>
    <path class="cls-1" d="M507.5,1389.99l2.95-2.55,10.55,12.2-16.67,14.41c-2.3-1.07-4.9-2.57-7.79-4.5-2.89-1.93-5.66-4.43-8.31-7.49-3.48-4.03-5.74-8.28-6.79-12.76-1.05-4.48-.84-8.89.62-13.21,1.46-4.32,4.23-8.24,8.3-11.76,4.16-3.59,8.62-5.85,13.4-6.78,4.78-.92,9.46-.54,14.06,1.15,4.59,1.68,8.74,4.67,12.45,8.96,2.27,2.62,3.98,5.2,5.13,7.72,1.15,2.52,2.11,4.98,2.88,7.37l-9.38,8.11-2.72-3.15c1.35-1.7,2.3-3.48,2.85-5.33.54-1.85.61-3.72.19-5.61-.42-1.89-1.47-3.82-3.18-5.79-2.2-2.54-4.83-4.16-7.88-4.88-3.07-.72-6.28-.52-9.64.59-3.36,1.11-6.66,3.06-9.89,5.86s-5.64,5.79-7.2,8.98c-1.56,3.19-2.2,6.32-1.91,9.39.29,3.08,1.51,5.86,3.67,8.35.94,1.09,2.03,2.08,3.26,2.97s2.4,1.54,3.52,1.95l7.02-6.07c1.31-1.14,2.01-2.36,2.11-3.66.1-1.31-.43-2.8-1.58-4.48Z"/>
    <path class="cls-1" d="M574.4,1419.5l2.67-2.84,11.7,10.98-2.67,2.84c-1.42-1.02-2.7-1.45-3.85-1.29-1.14.16-2.28.85-3.43,2.07l-29.38,31.31-5.44-5.11,6.58-51.75,2.07,1.35-22.56,24.03c-1.39,1.48-2.01,2.82-1.86,4.02.14,1.2.7,2.46,1.68,3.78l-2.67,2.85-11.89-11.16,2.67-2.85c1.34.86,2.58,1.29,3.73,1.29s2.27-.58,3.38-1.76l22.97-24.48c1.03-1.1,1.66-2.27,1.88-3.53.23-1.25-.26-2.6-1.45-4.04l2.68-2.84,10.18,9.56-6.71,51.51-3.44-1.92,22.85-24.35c1.39-1.48,2.06-2.79,2.02-3.93s-.61-2.39-1.71-3.75Z"/>
    <path class="cls-1" d="M604.96,1451.96l-21.22,26.68c-1.05,1.31-1.53,2.5-1.45,3.56.08,1.06.73,2.26,1.96,3.61l-2.43,3.05-15.68-12.47,2.43-3.06c1.58.89,2.89,1.27,3.92,1.13,1.03-.14,2.07-.86,3.12-2.18l21.27-26.75c1.04-1.31,1.53-2.5,1.44-3.56-.08-1.06-.75-2.24-2.01-3.54l2.43-3.06,15.68,12.47-2.43,3.05c-1.55-.93-2.84-1.33-3.87-1.19-1.03.14-2.09.89-3.17,2.25Z"/>
    <path class="cls-1" d="M621.38,1505.94c-.95,1.39-1.34,2.6-1.19,3.66.16,1.05.87,2.19,2.14,3.4l-2.2,3.23-16.47-11.25,2.2-3.22c1.64.77,2.98,1.05,4,.84,1.02-.22,2-1.01,2.95-2.4l24.41-35.74,8.53,5.82-24.36,35.67ZM623.68,1455.2l14.97,10.22-2.64,3.87-5.3-3.62c-1.82-1.24-3.68-1.6-5.61-1.1-1.92.51-3.71,1.77-5.37,3.79l-3.44-2.35,7.38-10.81ZM659.2,1479.46l-7.38,10.82-3.44-2.35c1.18-2.34,1.68-4.49,1.51-6.43-.18-1.94-1.17-3.54-2.99-4.78l-4.87-3.32,2.64-3.87,14.54,9.93Z"/>
    <path class="cls-1" d="M651.48,1535.67l-14.14-7.93,1.91-3.41c1.48.43,2.72.63,3.7.58.99-.04,1.91-.32,2.76-.84.86-.52,1.85-1.25,2.98-2.21l33.64-28.96,8.4,4.71-7.58,44.37c-.19,1.29-.27,2.4-.24,3.35s.24,1.79.62,2.53c.38.74.95,1.5,1.72,2.26l-1.91,3.4-17.55-9.84,1.91-3.41c1.81.68,3.13.76,3.99.25.85-.52,1.43-1.58,1.74-3.2l6.49-37.82,1.29.72-28.58,25.44c-1.43,1.25-2.03,2.34-1.79,3.27.24.93,1.09,2.04,2.56,3.32l-1.91,3.4ZM677.86,1531.37l-20.12-11.28,2.33-4.16,20.12,11.29-2.33,4.16Z"/>
    <path class="cls-1" d="M724.28,1527.67c-.75,1.69-.81,3.32-.19,4.9.63,1.58,1.66,3.14,3.09,4.69,1.43,1.55,2.95,3.18,4.57,4.88,1.62,1.7,3.07,3.49,4.36,5.36,1.29,1.87,2.1,3.91,2.45,6.12.35,2.21-.07,4.64-1.24,7.28-1.46,3.28-3.53,5.66-6.22,7.16-2.69,1.49-5.73,2.17-9.11,2.03-3.38-.15-6.79-.98-10.23-2.51-3.12-1.39-5.8-2.97-8.04-4.76-2.25-1.79-3.94-3.38-5.09-4.78l5.5-12.36,3.8,1.69c-.98,3.49-.99,6.6-.02,9.34.96,2.74,3.01,4.8,6.12,6.19,2.53,1.13,4.91,1.38,7.12.74,2.21-.63,3.86-2.16,4.94-4.59.85-1.9.96-3.7.36-5.4-.61-1.7-1.6-3.32-3-4.89-1.39-1.57-2.91-3.16-4.56-4.78-1.65-1.62-3.13-3.34-4.45-5.16-1.31-1.82-2.16-3.79-2.54-5.93-.38-2.13,0-4.49,1.15-7.08,1.36-3.06,3.29-5.33,5.77-6.79,2.48-1.46,5.26-2.15,8.33-2.09,3.07.07,6.11.77,9.12,2.11,3.01,1.34,5.45,2.79,7.32,4.35,1.87,1.56,3.51,3.16,4.94,4.8l-4.68,10.54-3.81-1.7c.83-2.86.84-5.45.04-7.77-.81-2.32-2.53-4.07-5.17-5.24-2.48-1.1-4.65-1.27-6.51-.52s-3.23,2.14-4.12,4.15Z"/>
    <path class="cls-1" d="M803.63,1545.1l-14.66,50.3-14.57-4.25,1.09-3.75c1.71.14,3.04-.03,3.99-.51s1.66-1.52,2.13-3.13l9.56-32.81c.47-1.61.47-2.89,0-3.84-.48-.95-1.54-1.79-3.2-2.51l1.09-3.75,14.57,4.25ZM806.23,1572.78l.29-1c3.17.92,5.83,2.27,7.99,4.05s3.66,3.81,4.5,6.1c.84,2.29.89,4.69.17,7.19-.81,2.78-2.31,4.97-4.5,6.59-2.19,1.62-4.94,2.58-8.25,2.88-3.31.3-7.05-.16-11.21-1.37l-7.41-2.16,1.38-4.74,4.99,1.18c2.37.57,4.52.77,6.46.62,1.94-.16,3.59-.74,4.94-1.77,1.35-1.02,2.31-2.5,2.88-4.44.62-2.11.6-3.97-.05-5.57-.65-1.6-1.82-3.04-3.53-4.32-1.7-1.28-3.87-2.36-6.5-3.25l-3.68-1.34,1.27-4.33,4.07.91c3.84.88,6.9.87,9.18-.03s3.83-2.77,4.66-5.6c.76-2.61.38-4.9-1.15-6.89-1.53-1.98-3.85-3.51-6.97-4.61l-4.67-1.63,1.31-4.5,6.16,1.8c3.72,1.08,6.88,2.57,9.5,4.44,2.61,1.88,4.47,4.04,5.56,6.5,1.09,2.46,1.23,5.07.42,7.85-.65,2.22-1.81,4.04-3.49,5.45-1.67,1.41-3.75,2.31-6.21,2.71-2.46.4-5.17.16-8.11-.69Z"/>
    <path class="cls-1" d="M857.53,1558.67l-10.03,51.42-14.9-2.9.74-3.83c1.82.06,3.15-.21,4-.81.86-.6,1.44-1.72,1.76-3.37l6.55-33.55c.32-1.65.2-2.92-.36-3.82-.56-.91-1.7-1.64-3.41-2.21l.74-3.83,14.9,2.91ZM869.38,1600.3l4.14,1.43-4.56,12.54-27.41-5.35.86-4.42,16.73,2.56c2.69.41,4.79.05,6.31-1.07,1.51-1.12,2.82-3.01,3.94-5.69ZM846.01,1585.14l.86-4.43,22.69,3.28-1.28,6.55-22.28-5.4ZM879.67,1562.98l-2.51,12.85-4.09-.79c.28-2.65-.06-4.74-1.03-6.26-.97-1.52-2.44-2.49-4.42-2.94l-16.81-3.99.85-4.34,28.01,5.46Z"/>
    <path class="cls-1" d="M928.98,1572.65l.37-3.88,15.97,1.52-.37,3.89c-1.75.07-3.03.51-3.83,1.34-.81.82-1.29,2.07-1.45,3.74l-4.07,42.74-7.43-.71-26.48-44.95,2.46-.2-3.12,32.81c-.19,2.01.14,3.45.98,4.32.84.86,2.06,1.52,3.65,1.96l-.37,3.89-16.23-1.55.37-3.88c1.58-.14,2.82-.56,3.73-1.26s1.44-1.85,1.59-3.46l3.18-33.42c.14-1.5-.08-2.81-.67-3.94-.59-1.13-1.79-1.9-3.61-2.3l.37-3.89,13.9,1.32,26.23,44.84-3.89.59,3.17-33.24c.19-2.01-.08-3.46-.81-4.35-.73-.88-1.95-1.52-3.66-1.92Z"/>
    <path class="cls-1" d="M972.95,1579.62l-.55,34.08c-.03,1.68.31,2.91,1.03,3.7.71.79,1.96,1.35,3.75,1.67l-.06,3.9-20.04-.33.07-3.9c1.79-.26,3.06-.76,3.8-1.5.74-.74,1.12-1.95,1.15-3.63l.55-34.17c.02-1.68-.32-2.91-1.03-3.7-.71-.79-1.96-1.32-3.75-1.58l.07-3.9,20.03.33-.06,3.9c-1.8.2-3.06.67-3.8,1.41-.74.74-1.12,1.98-1.14,3.71Z"/>
    <path class="cls-1" d="M1023.87,1599.61l-.25-3.89,16.1-1.05,1.42,21.99c-2.24,1.19-5,2.35-8.29,3.49-3.29,1.14-6.95,1.84-10.99,2.1-5.31.34-10.07-.42-14.27-2.29-4.21-1.87-7.59-4.69-10.15-8.47-2.56-3.78-4.01-8.35-4.36-13.71-.36-5.48.54-10.41,2.69-14.77,2.15-4.37,5.28-7.88,9.4-10.52,4.11-2.64,9-4.15,14.66-4.52,3.46-.22,6.55-.03,9.25.57s5.24,1.33,7.62,2.16l.8,12.38-4.16.27c-.54-2.11-1.39-3.94-2.53-5.49-1.14-1.55-2.6-2.73-4.36-3.54-1.76-.81-3.94-1.14-6.54-.97-3.35.22-6.23,1.33-8.65,3.34-2.42,2.01-4.2,4.69-5.35,8.04-1.15,3.35-1.58,7.16-1.3,11.42.28,4.27,1.22,7.99,2.81,11.16,1.6,3.17,3.7,5.57,6.33,7.19,2.63,1.62,5.59,2.33,8.87,2.12,1.44-.1,2.89-.36,4.34-.81,1.45-.44,2.68-.98,3.68-1.63l-.6-9.26c-.11-1.73-.66-3.03-1.64-3.89-.98-.86-2.49-1.34-4.53-1.44Z"/>
    <path class="cls-1" d="M1087.81,1564.08l-.66-3.85,15.82-2.7.66,3.85c-1.67.52-2.79,1.28-3.35,2.29-.56,1.01-.7,2.34-.42,3.99l7.24,42.32-7.35,1.26-37.3-36.48,2.32-.84,5.55,32.49c.34,2,1.03,3.3,2.08,3.91,1.04.62,2.39.93,4.03.94l.66,3.85-16.07,2.75-.66-3.85c1.49-.55,2.58-1.28,3.27-2.19s.91-2.17.63-3.76l-5.65-33.09c-.26-1.48-.81-2.69-1.68-3.63-.86-.93-2.23-1.36-4.09-1.28l-.66-3.85,13.76-2.35,37.03,36.44-3.6,1.58-5.63-32.92c-.34-1.99-.98-3.32-1.91-3.98s-2.27-.96-4.02-.9Z"/>
    <path class="cls-1" d="M1132.06,1559.28l8.5,33.01c.42,1.62,1.07,2.72,1.97,3.3.89.57,2.25.78,4.05.61l.98,3.78-19.4,4.99-.97-3.78c1.66-.73,2.75-1.55,3.26-2.45.51-.91.56-2.17.14-3.8l-8.52-33.09c-.42-1.62-1.08-2.72-1.97-3.3s-2.24-.75-4.03-.53l-.98-3.78,19.4-5,.98,3.78c-1.68.67-2.77,1.46-3.29,2.37-.51.91-.55,2.2-.12,3.88Z"/>
    <path class="cls-1" d="M1145.93,1546.3l17.18-5.8,1.5,4.44-6.08,2.05c-2.08.7-3.5,1.98-4.25,3.82s-.82,4.03-.21,6.57l-3.94,1.33-4.19-12.41ZM1185.06,1578.68c.53,1.59,1.27,2.64,2.2,3.15s2.27.62,4.01.34l1.25,3.7-18.9,6.38-1.25-3.7c1.61-.85,2.63-1.74,3.08-2.69.45-.94.4-2.21-.14-3.8l-13.84-41.01,9.78-3.3,13.82,40.93ZM1186.69,1532.54l4.19,12.41-3.94,1.33c-1.16-2.36-2.57-4.04-4.23-5.07-1.66-1.03-3.53-1.19-5.61-.48l-5.59,1.89-1.5-4.44,16.68-5.63Z"/>
    <path class="cls-1" d="M1226.92,1572.53l-14.85,6.53-1.57-3.58c1.24-.92,2.13-1.79,2.69-2.6.56-.81.89-1.72.99-2.71s.11-2.23.03-3.7l-2.9-44.3,8.81-3.87,30.89,32.75c.91.92,1.76,1.66,2.53,2.2.78.55,1.58.89,2.4,1.03s1.77.14,2.84-.02l1.57,3.57-18.42,8.1-1.57-3.57c1.63-1.03,2.49-2.04,2.6-3.03.1-.99-.4-2.1-1.51-3.32l-26.31-27.94,1.35-.6,3.13,38.14c.14,1.9.65,3.03,1.54,3.39s2.29.36,4.2-.05l1.57,3.57ZM1239.35,1548.87l-21.12,9.29-1.92-4.37,21.12-9.29,1.92,4.37Z"/>
    <path class="cls-1" d="M1243.29,1507.65l15.89-8.74,2.26,4.1-5.62,3.1c-1.93,1.06-3.1,2.56-3.51,4.5-.42,1.95-.1,4.11.95,6.5l-3.65,2.01-6.31-11.48ZM1287.52,1532.62c.81,1.47,1.72,2.37,2.72,2.71s2.34.21,4.01-.37l1.88,3.42-17.48,9.61-1.88-3.42c1.43-1.12,2.28-2.18,2.56-3.19.27-1,0-2.25-.81-3.71l-20.86-37.92,9.04-4.97,20.82,37.85ZM1280.98,1486.91l6.31,11.47-3.65,2.01c-1.55-2.11-3.24-3.53-5.06-4.25-1.82-.72-3.68-.55-5.61.51l-5.17,2.84-2.26-4.1,15.43-8.49Z"/>
    <path class="cls-1" d="M1303.27,1472.45l29.19,43.51-12.6,8.46-2.17-3.24c1.33-1.24,2.08-2.37,2.26-3.4.18-1.03-.19-2.24-1.13-3.63l-19.04-28.38c-.93-1.39-1.92-2.21-2.96-2.46-1.03-.25-2.36.03-3.98.84l-2.17-3.24,12.61-8.46ZM1321.99,1459.89l7.3,10.88-3.46,2.32c-1.67-2.08-3.39-3.32-5.15-3.7-1.76-.38-3.49-.04-5.21,1.04l-14.72,9.04-2.46-3.68,23.7-15.9ZM1313.79,1499.34l-2.51-3.75,18.39-13.69,3.72,5.54-19.59,11.9ZM1341.05,1493.58l3.94-1.91,5.61,12.11-23.19,15.56-2.51-3.75,13.66-10c2.2-1.61,3.43-3.35,3.72-5.21.28-1.86-.13-4.13-1.22-6.81Z"/>
    <path class="cls-1" d="M1385.56,1420.79l24.09,23.13c1.29,1.18,2.58,1.83,3.87,1.96,1.28.13,2.55-.18,3.8-.94l2.52,2.98-14.84,12.54-2.52-2.98c.93-1.4,1.32-2.6,1.16-3.59-.16-1-1.19-2.4-3.09-4.2l-22.65-21.97.26-.22,16.43,41.76-5.63,4.76-39.55-23.7.46-.39,18.93,27.38c1.13,1.7,2.33,2.67,3.6,2.92,1.27.25,2.7-.07,4.3-.96l2.52,2.98-12.72,10.75-2.52-2.98c1-1.23,1.63-2.44,1.87-3.63.24-1.19-.19-2.57-1.28-4.14l-18.81-27.37c-.98-1.43-2.03-2.35-3.12-2.75s-2.36-.14-3.79.76l-2.52-2.98,13.12-11.08,42.41,25.6-3.9,3.18-18.23-45.91,12.79-10.8,2.52,2.98c-1.05,1.18-1.5,2.34-1.37,3.49.13,1.14.76,2.29,1.9,3.45Z"/>
    <path class="cls-1" d="M1422.62,1368.45l32.7,28.23c1.27,1.1,2.44,1.62,3.5,1.59s2.29-.64,3.68-1.81l2.96,2.55-13.09,15.17-2.96-2.55c.96-1.55,1.38-2.84,1.29-3.88-.1-1.04-.78-2.1-2.05-3.2l-25.87-22.33c-1.27-1.1-2.44-1.62-3.5-1.59-1.07.04-2.27.66-3.62,1.86l-2.95-2.55,9.92-11.49ZM1450.67,1386.13l-3.68,4.27-3.75-3.23,2.53-3.32c2.24-3.03,3.39-5.92,3.45-8.65.07-2.73-1.28-5.29-4.04-7.67-2.58-2.23-5.34-3.18-8.27-2.84-2.93.33-5.66,1.85-8.22,4.54l-2.86,2.92-3.68-3.18,3.57-4.13c2.83-3.28,5.81-5.74,8.93-7.36,3.12-1.62,6.19-2.35,9.22-2.18,3.03.17,5.83,1.36,8.41,3.6,2.45,2.11,4.03,4.68,4.75,7.71.72,3.02.55,6.2-.5,9.54-1.05,3.33-3.01,6.67-5.88,9.99Z"/>
    <path class="cls-1" d="M1495.12,1362.19l-9.49,13.16-3.17-2.28c.6-1.42.93-2.63,1-3.61.07-.98-.11-1.93-.53-2.84s-1.03-1.98-1.86-3.21l-24.97-36.71,5.63-7.81,43.23,12.56c1.25.34,2.35.54,3.3.62.94.07,1.81-.03,2.59-.33s1.59-.78,2.44-1.45l3.17,2.28-11.77,16.32-3.17-2.28c.88-1.72,1.11-3.03.7-3.94-.42-.9-1.41-1.6-2.98-2.09l-36.85-10.73.86-1.2,22.04,31.28c1.08,1.56,2.1,2.28,3.05,2.15.95-.13,2.15-.86,3.59-2.17l3.17,2.28ZM1493.83,1335.49l-13.49,18.72-3.87-2.79,13.49-18.72,3.87,2.79Z"/>
    <path class="cls-1" d="M1487.03,1280.04l37.38,21.65c1.46.84,2.7,1.14,3.73.91,1.04-.24,2.13-1.05,3.28-2.46l3.37,1.96-10.04,17.34-3.38-1.96c.65-1.7.83-3.04.54-4.05-.29-1-1.16-1.92-2.61-2.76l-29.58-17.13c-1.45-.84-2.7-1.15-3.73-.91s-2.1,1.07-3.2,2.51l-3.38-1.96,7.61-13.14ZM1512.64,1295.87l-4.21-2.44,2.57-5.13c1.56-3.04,2.13-5.83,1.7-8.39-.43-2.56-1.99-4.61-4.69-6.18-1.85-1.07-3.62-1.54-5.3-1.41-1.68.13-3.29.77-4.82,1.92s-2.91,2.67-4.15,4.56l-2.75,4.22-4.28-2.48,3.04-5.26c2.15-3.7,4.51-6.63,7.09-8.77,2.58-2.15,5.28-3.43,8.08-3.84,2.81-.41,5.57.17,8.27,1.73,2.65,1.54,4.55,3.6,5.69,6.2,1.14,2.6,1.52,5.49,1.14,8.68-.38,3.19-1.52,6.43-3.43,9.74l-3.96,6.83ZM1513.56,1287.88l3.23-9.56,18.42.55c2.43.07,4.38-.09,5.84-.48,1.46-.39,2.93-1.22,4.41-2.51l3.38,1.96-6.43,11.11-28.85-1.07Z"/>
    <path class="cls-1" d="M1522.72,1232.14l30.74,14.74c1.51.72,2.78.93,3.8.62,1.01-.31,2.04-1.22,3.08-2.71l3.52,1.69-8.66,18.06-3.52-1.69c.51-1.74.59-3.1.22-4.08-.36-.98-1.3-1.83-2.82-2.55l-30.82-14.78c-1.51-.72-2.77-.93-3.79-.62s-2.02,1.23-3,2.75l-3.52-1.69,8.66-18.07,3.52,1.69c-.57,1.72-.67,3.06-.3,4.04.37.98,1.33,1.84,2.89,2.59Z"/>
    <path class="cls-1" d="M1521.73,1213.12l6.62-16.88,4.36,1.71-2.34,5.97c-.8,2.05-.74,3.95.19,5.71.93,1.76,2.56,3.23,4.9,4.39l-1.52,3.88-12.19-4.78ZM1571.7,1204.02c1.56.61,2.84.72,3.82.33.99-.38,1.94-1.34,2.84-2.84l3.63,1.42-7.28,18.57-3.63-1.42c.38-1.77.36-3.13-.08-4.09-.43-.95-1.43-1.72-2.99-2.34l-40.3-15.8,3.77-9.61,40.21,15.77ZM1537.43,1173.07l12.19,4.78-1.52,3.87c-2.55-.62-4.75-.63-6.6-.02-1.86.61-3.18,1.94-3.99,3.98l-2.15,5.49-4.36-1.71,6.43-16.39Z"/>
  </g>
  <path class="cls-1" d="M976.08,1507.68c-292.99,0-531.35-238.36-531.35-531.35s238.36-531.35,531.35-531.35,531.35,238.36,531.35,531.35-238.36,531.35-531.35,531.35ZM976.08,466.14c-281.32,0-510.18,228.87-510.18,510.18s228.87,510.18,510.18,510.18,510.18-228.87,510.18-510.18-228.87-510.18-510.18-510.18Z"/>
  <path class="cls-1" d="M1588.7,1128.48l-20.55-5.09c11.85-47.9,17.85-97.38,17.85-147.09,0-98.17-22.63-191.88-67.25-278.53l18.82-9.69c46.18,89.67,69.6,186.65,69.6,288.22,0,51.42-6.21,102.61-18.47,152.17Z"/>
  <path class="cls-1" d="M363.5,1128.53c-12.26-49.56-18.47-100.78-18.47-152.22,0-101.61,23.42-198.63,69.6-288.35l18.82,9.69c-44.62,86.7-67.25,180.45-67.25,278.66,0,49.73,6.01,99.23,17.85,147.13l-20.55,5.09Z"/>
</svg>