<?xml version="1.0" encoding="UTF-8"?>
<svg id="Layer_1" data-name="Layer 1" xmlns="http://www.w3.org/2000/svg" xmlns:xlink="http://www.w3.org/1999/xlink" viewBox="0 0 1734.14 1347.56">
  <defs>
    <style>
      .cls-1, .cls-2 {
        fill: none;
      }

      .cls-2 {
        stroke: #000;
        stroke-linecap: round;
        stroke-linejoin: round;
        stroke-width: .75px;
      }

      .cls-3 {
        clip-path: url(#clippath);
      }

      .cls-4 {
        fill: #344e41;
      }
    </style>
    <clipPath id="clippath">
      <rect class="cls-1" x="658.92" y="1476.11" width="1500" height="2760" transform="translate(4265.04 1447.19) rotate(90)"/>
    </clipPath>
  </defs>
  <g class="cls-3">
    <line class="cls-2" x1="1379.83" y1="2516.53" x2="3712.91" y2="1169.53"/>
    <line class="cls-2" x1="1379.83" y1="2516.53" x2="3381.87" y2="713.89"/>
    <line class="cls-2" x1="1379.83" y1="2516.53" x2="2963.33" y2="337.04"/>
    <line class="cls-2" x1="1379.83" y1="2516.53" x2="2475.58" y2="55.44"/>
    <line class="cls-2" x1="1379.83" y1="2516.53" x2="1939.95" y2="-118.6"/>
    <line class="cls-2" x1="1379.83" y1="2516.53" x2="1379.83" y2="-177.47"/>
    <line class="cls-2" x1="1379.83" y1="2516.53" x2="819.72" y2="-118.6"/>
    <line class="cls-2" x1="1379.83" y1="2516.53" x2="284.09" y2="55.44"/>
    <line class="cls-2" x1="1379.83" y1="2516.53" x2="-203.66" y2="337.04"/>
    <line class="cls-2" x1="1379.83" y1="2516.53" x2="-622.2" y2="713.89"/>
    <line class="cls-2" x1="1379.83" y1="2516.53" x2="-953.24" y2="1169.53"/>
  </g>
  <path class="cls-4" d="M1726.08,725.97l-311.98-442.03c-11.48,3.85-22.91,8-34.09,12.49-2.12.85-4.23,1.69-6.35,2.58-12.37,5-24.56,10.42-36.5,16.18-35.45,16.9-69.15,36.8-100.87,59.29-57.09,40.4-107.73,89.31-150,144.92-3.68,4.79-7.28,9.7-10.8,14.65l-.42-.55-10.88-13.25-.72-.85-116.75-147.24c-15.25-19.23-37.39-32.18-61.36-36.55-5.8-1.06-11.69-1.57-17.66-1.57H328.42c9.19-14.53,18.93-28.63,29.26-42.35,116.33-154.74,301.39-254.94,509.41-254.94,194.34,0,368.6,87.45,485.52,225.12,1.65-.68,27.61-10.97,36.21-14.02C1265.12,96.68,1077.18,0,867.09,0c-229.74,0-433.01,115.61-554.68,291.69-9.53,13.76-18.55,27.86-27.02,42.35H117.1c-34.47,0-59.33,33.88-45.65,65.43,10.63,24.52,29.98,57.68,63.48,83.64H49.52c-34.51,0-59.37,33.92-45.69,65.51,18.63,42.98,64.28,112.77,165.75,123.06,4.19,13.59,12.11,34.51,25.87,56.45,6.52,81.31,27.53,158.55,60.43,229.19,7.71,16.52,16.05,32.69,25.03,48.45,115.95,203.95,335.27,341.79,586.18,341.79,200.73,0,381.26-88.25,504.79-228,10.59-11.94,20.75-24.31,30.45-37.05,1.06-1.31,2.08-2.67,3.09-4.02.3-.38.59-.8.93-1.27,1.14-1.52,2.2-3.05,3.26-4.62,16.56-25.28,20.12-56.92,11.82-85.97-1.95-6.9-4.07-13.76-6.27-20.58-21.77-66.74-54.71-128.44-96.6-182.94,20.88-4.87,42.6-7.41,64.92-7.41,38.41,0,75.08,7.5,108.67,21.09,11.77,4.79,23.16,10.29,34.13,16.52,7.96,4.49,15.67,9.36,23.16,14.57.08.04.13.04.17.17,12.15,8.34,23.63,17.66,34.26,27.91.34.21,11.39,10.63,17.24,16.13,3.13,2.96,6.9,5.34,11.14,6.31,9.87,2.2,15.33-3.6,21.72-8.43,3.52-2.8,6.99-5.67,10.42-8.6.25-.13.47-.3.72-.68,25.87-21.81,49.5-46.29,70.55-72.97l.08-.04c3.47-4.53,6.95-9.06,10.33-13.68,10.33-14.19,11.05-33.84.3-47.68-.08-.13-.21-.21-.3-.34ZM109.14,383.17c-1.82-4.15,3.35-8.09,7.96-8.09h750.58c2.2,0,4.32.08,6.48.38,15.67,1.74,30.45,9.78,40.32,22.28l128.27,161.6,6.95,8.72s-.04.04-.04.13l1.44,1.86c-2.33,3.68-4.66,7.45-6.9,11.18-6.69,11.01-13.04,22.23-19.01,33.67-10.16,19.1-19.4,38.75-27.65,58.86l-5.63-7.16-35.66-45.74-23.59-30.24-33.67-43.2-20.07-25.75c-4.62-5.89-9.87-11.18-15.54-15.84-12.15-9.95-26.55-16.94-41.92-20.37-6.94-1.52-14.14-2.37-21.34-2.37-.85,0-536.21-.3-537.06-.3-1.27,0-2.5,0-3.73-.08-13.47-.17-25.83-1.57-37.22-3.98-63.82-13.38-96.47-57.55-112.94-95.58ZM1621.27,826.97c-1.48,1.31-2.88,2.54-4.36,3.64-2.71-2.71-5.46-5.29-8.26-7.88-9.87-9.19-20.28-17.7-31.25-25.62-13.76-9.91-28.29-18.8-43.49-26.59-11.31-5.76-22.95-10.88-34.98-15.37-35.95-13.34-74.87-20.67-115.44-20.67-13.09,0-25.96.8-38.62,2.24-3.18.38-6.31.76-9.4,1.23-15.75,2.29-31.13,5.67-46.03,10.08-3.39,1.02-6.73,2.08-10.08,3.18-1.65,4.32-3.05,8.72-4.19,13.21-1.78,6.99-2.88,14.14-3.43,21.34,50.99,60.35,89.74,131.32,112.39,209.07,1.02,3.43,1.99,6.86,2.92,10.29,3.64,18-.25,37.18-11.9,52.51-5.34,7.07-10.84,14.02-16.47,20.84-11.73,14.23-24.05,27.91-36.97,41.08-115.65,117.94-276.75,191.24-454.61,191.24-249.64,0-466.21-144.32-570.56-353.95-7.88-15.71-15.08-31.76-21.56-48.19-16.64-41.71-28.97-85.54-36.46-131.02,21.94,18.12,50.27,33.07,86.43,39.93,6.39,1.27,13,2.2,19.9,2.92,1.95,6.35,4.7,14.27,8.51,23.21,20.92,48.95,72.92,127,192.39,127h395.74c1.78,0,3.56-.25,5.21-.72,8.81-2.24,15.33-10.29,15.33-19.82s-6.86-18.08-16.18-20.07c-1.4-.3-2.88-.47-4.36-.47h-395.74c-102.69,0-143.01-69.58-157.41-107.78h428.65c9.78,0,18.68-6.61,20.67-16.22,2.71-13.17-7.33-24.82-20.12-24.82h-447.15c-6.39,0-12.54-.25-18.42-.8-63.61-5.51-100.28-39.38-120.95-71.36-8.34-12.83-14.1-25.37-18-35.66h490.22c11.1,0,21.05-8.34,21.6-19.44.55-11.82-8.81-21.6-20.45-21.6H194.56c-90.84-.34-133.35-54.33-153.05-99.69-1.82-4.11,3.35-8.09,8-8.09h750.58c8.22,0,16.35,1.78,23.76,5.12,7.67,3.39,14.61,8.43,20.24,14.78.8.89,1.61,1.86,2.37,2.84,7.75,9.95,17.19,22.06,27.95,35.83.21.3.42.55.64.85,28.59,36.67,66.27,84.95,105.62,135.39,10.21,13.04,20.54,26.3,30.87,39.55,4.53-15.97,9.66-31.68,15.41-47.05,10.33-28.08,22.66-55.22,36.72-81.35,6.06-11.26,12.45-22.32,19.18-33.16,9.4-15.29,19.44-30.11,30.07-44.51,53.44-67.25,110.7-116.63,152.07-147.75,41.84-29.18,87.24-53.44,135.43-71.99l27.61,39.38,90.37,128.91,174.31,248.67c-20.75,28.42-44.8,54.38-71.44,77.29Z"/>
</svg>