<?xml version="1.0" encoding="UTF-8"?>
<svg id="Layer_1" data-name="Layer 1" xmlns="http://www.w3.org/2000/svg" viewBox="0 0 2829.99 483.7">
  <defs>
    <style>
      .cls-1 {
        fill: #344e41;
      }
    </style>
  </defs>
  <g>
    <path class="cls-1" d="M395.76,251.22l-55.9-79.21c-2.06.69-4.11,1.43-6.11,2.24-.38.15-.76.3-1.14.46-2.22.9-4.4,1.87-6.54,2.9-6.35,3.03-12.39,6.59-18.08,10.62-10.23,7.24-19.3,16-26.88,25.97-.66.86-1.31,1.74-1.94,2.63l-.08-.1-1.95-2.38-.13-.15-20.92-26.38c-2.73-3.45-6.7-5.77-11-6.55-1.04-.19-2.09-.28-3.16-.28h-96.63c1.65-2.6,3.39-5.13,5.24-7.59,20.85-27.73,54.01-45.68,91.28-45.68,34.82,0,66.05,15.67,87,40.34.3-.12,4.95-1.97,6.49-2.51-22.17-27.09-55.84-44.41-93.49-44.41-41.17,0-77.59,20.72-99.39,52.27-1.71,2.47-3.32,4.99-4.84,7.59h-30.16c-6.18,0-10.63,6.07-8.18,11.72,1.9,4.39,5.37,10.34,11.37,14.99h-15.31c-6.18,0-10.64,6.08-8.19,11.74,3.34,7.7,11.52,20.21,29.7,22.05.75,2.44,2.17,6.18,4.64,10.12,1.17,14.57,4.93,28.41,10.83,41.07,1.38,2.96,2.88,5.86,4.48,8.68,20.78,36.55,60.08,61.25,105.04,61.25,35.97,0,68.32-15.81,90.45-40.86,1.9-2.14,3.72-4.36,5.46-6.64.19-.24.37-.48.55-.72.05-.07.11-.14.17-.23.2-.27.39-.55.58-.83,2.97-4.53,3.6-10.2,2.12-15.4-.35-1.24-.73-2.47-1.12-3.69-3.9-11.96-9.8-23.02-17.31-32.78,3.74-.87,7.63-1.33,11.63-1.33,6.88,0,13.45,1.34,19.47,3.78,2.11.86,4.15,1.84,6.12,2.96,1.43.8,2.81,1.68,4.15,2.61.02,0,.02,0,.03.03,2.18,1.49,4.23,3.16,6.14,5,.06.04,2.04,1.9,3.09,2.89.56.53,1.24.96,2,1.13,1.77.39,2.75-.65,3.89-1.51.63-.5,1.25-1.02,1.87-1.54.05-.02.08-.05.13-.12,4.64-3.91,8.87-8.29,12.64-13.07h.02c.62-.82,1.24-1.63,1.85-2.46,1.85-2.54,1.98-6.06.05-8.54-.02-.02-.04-.04-.05-.06ZM106.02,189.79c-.33-.74.6-1.45,1.43-1.45h134.5c.39,0,.77.02,1.16.07,2.81.31,5.46,1.75,7.22,3.99l22.99,28.96,1.24,1.56s0,0,0,.02l.26.33c-.42.66-.83,1.34-1.24,2-1.2,1.97-2.34,3.98-3.41,6.03-1.82,3.42-3.48,6.94-4.96,10.55l-1.01-1.28-6.39-8.2-4.23-5.42-6.03-7.74-3.6-4.61c-.83-1.05-1.77-2-2.78-2.84-2.18-1.78-4.76-3.04-7.51-3.65-1.24-.27-2.53-.42-3.82-.42-.15,0-96.08-.05-96.24-.05-.23,0-.45,0-.67-.02-2.41-.03-4.63-.28-6.67-.71-11.44-2.4-17.29-10.31-20.24-17.13ZM376.98,269.32c-.27.24-.52.46-.78.65-.49-.49-.98-.95-1.48-1.41-1.77-1.65-3.63-3.17-5.6-4.59-2.47-1.78-5.07-3.37-7.79-4.77-2.03-1.03-4.11-1.95-6.27-2.75-6.44-2.39-13.42-3.7-20.69-3.7-2.34,0-4.65.14-6.92.4-.57.07-1.13.14-1.68.22-2.82.41-5.58,1.02-8.25,1.81-.61.18-1.21.37-1.81.57-.3.77-.55,1.56-.75,2.37-.32,1.25-.52,2.53-.61,3.82,9.14,10.81,16.08,23.53,20.14,37.46.18.61.36,1.23.52,1.84.65,3.23-.05,6.66-2.13,9.41-.96,1.27-1.94,2.51-2.95,3.73-2.1,2.55-4.31,5-6.62,7.36-20.72,21.13-49.59,34.27-81.46,34.27-44.73,0-83.54-25.86-102.24-63.42-1.41-2.82-2.7-5.69-3.86-8.64-2.98-7.47-5.19-15.33-6.53-23.48,3.93,3.25,9.01,5.93,15.49,7.16,1.15.23,2.33.39,3.57.52.35,1.14.84,2.56,1.53,4.16,3.75,8.77,13.07,22.76,34.47,22.76h70.91c.32,0,.64-.05.93-.13,1.58-.4,2.75-1.84,2.75-3.55s-1.23-3.24-2.9-3.6c-.25-.05-.52-.08-.78-.08h-70.91c-18.4,0-25.63-12.47-28.21-19.31h76.81c1.75,0,3.35-1.18,3.7-2.91.49-2.36-1.31-4.45-3.6-4.45h-80.13c-1.15,0-2.25-.05-3.3-.14-11.4-.99-17.97-7.06-21.67-12.79-1.49-2.3-2.53-4.55-3.23-6.39h87.84c1.99,0,3.77-1.49,3.87-3.48.1-2.12-1.58-3.87-3.67-3.87h-91.36c-16.28-.06-23.9-9.74-27.42-17.86-.33-.74.6-1.45,1.43-1.45h134.5c1.47,0,2.93.32,4.26.92,1.37.61,2.62,1.51,3.63,2.65.14.16.29.33.42.51,1.39,1.78,3.08,3.95,5.01,6.42.04.05.08.1.11.15,5.12,6.57,11.88,15.22,18.93,24.26,1.83,2.34,3.68,4.71,5.53,7.09.81-2.86,1.73-5.68,2.76-8.43,1.85-5.03,4.06-9.9,6.58-14.58,1.09-2.02,2.23-4,3.44-5.94,1.68-2.74,3.48-5.4,5.39-7.98,9.58-12.05,19.84-20.9,27.25-26.48,7.5-5.23,15.63-9.58,24.27-12.9l4.95,7.06,16.19,23.1,31.23,44.56c-3.72,5.09-8.03,9.74-12.8,13.85Z"/>
    <path class="cls-1" d="M483.65,241.86l-61.71-15.01c-3.15-38.65-18.47-74.82-44.1-104.02l26.41-43.38-43.38,26.41c-29.2-25.63-65.36-40.95-104.01-44.1L241.83,0l-15.02,61.75c-38.65,3.16-74.81,18.48-104.01,44.1l-43.38-26.41,26.41,43.38c-25.63,29.2-40.95,65.37-44.1,104.01L0,241.86l61.72,15.01c3.15,38.65,18.47,74.81,44.11,104.02l-26.42,43.38,43.39-26.41c29.2,25.63,65.36,40.95,104.01,44.1l15.02,61.72,15.02-61.72c38.65-3.15,74.81-18.47,104.01-44.1l43.39,26.41-26.41-43.39c25.63-29.2,40.95-65.37,44.1-104.02l61.71-15ZM414.94,258.57c-3.38,35.62-17.51,68.96-40.83,96.19-2.95,3.45-6.06,6.81-9.31,10.06-3.25,3.25-6.61,6.36-10.06,9.31-27.23,23.33-60.56,37.46-96.18,40.83-5.17.49-7.22.78-7.22.78l-1.62,6.67-7.87,32.37-7.88-32.37-1.62-6.67s-2.05-.29-7.22-.78c-35.62-3.38-68.95-17.51-96.18-40.83-3.45-2.95-6.81-6.06-10.06-9.31-3.25-3.25-6.35-6.6-9.31-10.05-23.32-27.23-37.46-60.57-40.83-96.2-.49-5.16-.78-7.22-.78-7.22l-6.67-1.62-32.38-7.87,32.38-7.88,6.67-1.62s.29-2.05.78-7.22c3.38-35.62,17.51-68.96,40.83-96.19,2.96-3.45,6.06-6.81,9.31-10.05,3.25-3.25,6.6-6.35,10.05-9.31,27.23-23.32,60.56-37.46,96.18-40.83,2.38-.23,4.77-.4,7.16-.53l.07-.28,1.34-5.51-1.34,5.51h0l1.34-5.51.27-1.13,7.88-32.41,7.88,32.41.47,1.92,1.15,4.72.07.28c2.4.13,4.79.3,7.16.53,35.62,3.38,68.96,17.51,96.18,40.83,3.45,2.96,6.81,6.06,10.05,9.31,3.25,3.25,6.36,6.61,9.31,10.06,23.33,27.23,37.46,60.56,40.83,96.18.44,4.67.77,7.22.77,7.22l6.69,1.62,32.36,7.88-32.36,7.87-6.69,1.62s-.33,2.55-.77,7.22Z"/>
  </g>
  <g>
    <path class="cls-1" d="M583.39,364.31h-58.81v-8.11c5.68-1.62,10.07-3.25,13.18-4.87,3.11-1.62,5.68-4.12,7.71-7.5,2.03-3.38,4.26-8.32,6.69-14.8l78.69-209.7h16.22l78.28,212.94c2.16,5.68,4.12,10.01,5.88,12.98,1.75,2.98,4.06,5.21,6.89,6.69,2.84,1.49,6.83,2.91,11.97,4.26v8.11h-60.84v-8.11c8.65-1.35,14.33-3.58,17.04-6.69,2.7-3.11,2.57-8.45-.41-16.02l-71.79-197.53h3.25l-71.39,196.31c-3.24,8.92-3.24,14.8,0,17.64,3.25,2.84,9.06,4.94,17.44,6.29v8.11ZM699.8,280.35h-117.22v-13.79h117.22v13.79Z"/>
    <path class="cls-1" d="M853.92,119.33v216.19c0,7.58,1.42,12.51,4.26,14.81,2.84,2.3,8.18,4.26,16.02,5.88v8.11h-59.22v-8.11c7.84-1.62,13.18-3.58,16.02-5.88,2.84-2.29,4.26-7.23,4.26-14.81v-187.39c0-7.57-1.42-12.5-4.26-14.8-2.84-2.29-8.18-4.26-16.02-5.88v-8.11h38.94ZM849.86,251.55v-11.76l39.75-1.62c18.92-.81,34.27-5.13,46.03-12.98,11.76-7.84,17.65-21.36,17.65-40.56,0-12.71-3.11-22.78-9.33-30.22-6.22-7.43-14.74-12.84-25.55-16.22-10.82-3.38-22.99-5.34-36.5-5.88l-32.04-1.22v-11.76h34.88c18.11,0,33.8,2.17,47.05,6.49,13.24,4.33,23.59,11.09,31.03,20.28,7.43,9.2,11.15,21.36,11.15,36.5s-3.79,27.45-11.36,37.72c-7.57,10.28-17.71,18.05-30.42,23.32-12.71,5.27-26.91,7.91-42.59,7.91h-39.75ZM905.84,248.31l18.25-8.11,51.92,83.15c6.22,10.01,11.83,17.64,16.83,22.91,5,5.27,11.42,8.59,19.27,9.94v8.11h-35.29l-70.98-116Z"/>
    <path class="cls-1" d="M1055.5,119.33h94.1v10.95h-53.54c-10.01,0-17.64,3.04-22.92,9.12-5.27,6.08-8.45,15.08-9.53,26.97h-8.11v-47.05ZM1152.85,335.51c0,7.58,1.42,12.51,4.26,14.81,2.84,2.3,8.17,4.26,16.02,5.88v8.11h-59.22v-8.11c7.84-1.62,13.18-3.58,16.02-5.88,2.84-2.29,4.26-7.23,4.26-14.81V119.33h18.66v216.19ZM1231.53,119.33v47.05h-8.11c-1.08-11.9-4.26-20.89-9.53-26.97-5.27-6.08-12.92-9.12-22.92-9.12h-53.54v-10.95h94.1Z"/>
    <path class="cls-1" d="M1481.79,148.12c0-7.57-1.42-12.5-4.26-14.8-2.84-2.29-8.18-4.26-16.02-5.88v-8.11h55.57v8.11c-7.84,1.62-13.18,3.59-16.02,5.88-2.84,2.3-4.26,7.24-4.26,14.8v125.33c0,19.2-3.38,35.96-10.14,50.29-6.76,14.34-16.63,25.35-29.61,33.06-12.98,7.71-28.94,11.56-47.86,11.56s-35.76-3.79-48.88-11.35c-13.12-7.57-22.99-18.39-29.61-32.45-6.63-14.06-9.94-30.69-9.94-49.89v-126.55c0-7.57-1.42-12.5-4.26-14.8-2.84-2.29-8.18-4.26-16.02-5.88v-8.11h59.22v8.11c-7.85,1.62-13.18,3.59-16.02,5.88-2.84,2.3-4.26,7.24-4.26,14.8v115.6c0,28.13,5.27,50.16,15.82,66.11,10.55,15.96,29.34,23.93,56.38,23.93,24.88,0,42.79-7.23,53.74-21.7,10.95-14.46,16.43-34.81,16.43-61.04v-122.9Z"/>
    <path class="cls-1" d="M1620.5,364.31h-58.81v-8.11c5.68-1.62,10.07-3.25,13.18-4.87,3.11-1.62,5.68-4.12,7.71-7.5,2.03-3.38,4.26-8.32,6.69-14.8l78.69-209.7h16.23l78.28,212.94c2.16,5.68,4.12,10.01,5.88,12.98,1.76,2.98,4.06,5.21,6.89,6.69,2.84,1.49,6.83,2.91,11.97,4.26v8.11h-60.84v-8.11c8.65-1.35,14.33-3.58,17.04-6.69,2.7-3.11,2.57-8.45-.41-16.02l-71.79-197.53h3.24l-71.39,196.31c-3.25,8.92-3.25,14.8,0,17.64,3.24,2.84,9.05,4.94,17.44,6.29v8.11ZM1736.91,280.35h-117.22v-13.79h117.22v13.79Z"/>
    <path class="cls-1" d="M1891.03,119.33v216.19c0,7.58,1.42,12.51,4.26,14.81,2.84,2.3,8.17,4.26,16.02,5.88v8.11h-59.22v-8.11c7.84-1.62,13.18-3.58,16.02-5.88,2.84-2.29,4.26-7.23,4.26-14.81v-187.39c0-7.57-1.42-12.5-4.26-14.8-2.84-2.29-8.18-4.26-16.02-5.88v-8.11h38.94ZM1886.98,251.55v-11.76l39.75-1.62c18.93-.81,34.28-5.13,46.04-12.98,11.76-7.84,17.64-21.36,17.64-40.56,0-12.71-3.11-22.78-9.33-30.22-6.22-7.43-14.74-12.84-25.55-16.22-10.82-3.38-22.99-5.34-36.5-5.88l-32.04-1.22v-11.76h34.88c18.11,0,33.8,2.17,47.05,6.49,13.24,4.33,23.59,11.09,31.03,20.28,7.43,9.2,11.15,21.36,11.15,36.5s-3.79,27.45-11.36,37.72c-7.57,10.28-17.71,18.05-30.42,23.32-12.71,5.27-26.91,7.91-42.59,7.91h-39.75ZM1942.95,248.31l18.25-8.11,51.92,83.15c6.22,10.01,11.83,17.64,16.83,22.91,5,5.27,11.42,8.59,19.27,9.94v8.11h-35.29l-70.98-116Z"/>
    <path class="cls-1" d="M2153.86,148.12v187.39c0,7.58,1.42,12.51,4.26,14.81,2.84,2.3,8.17,4.26,16.02,5.88v8.11h-59.22v-8.11c7.84-1.62,13.18-3.58,16.02-5.88,2.84-2.29,4.26-7.23,4.26-14.81v-187.39c0-7.57-1.42-12.5-4.26-14.8-2.84-2.29-8.18-4.26-16.02-5.88v-8.11h59.22v8.11c-7.85,1.62-13.18,3.59-16.02,5.88-2.84,2.3-4.26,7.24-4.26,14.8Z"/>
    <path class="cls-1" d="M2434.53,148.12c0-7.57-1.42-12.5-4.26-14.8-2.84-2.29-8.18-4.26-16.02-5.88v-8.11h55.57v8.11c-7.84,1.62-13.18,3.59-16.02,5.88-2.84,2.3-4.26,7.24-4.26,14.8v125.33c0,19.2-3.38,35.96-10.14,50.29-6.76,14.34-16.63,25.35-29.61,33.06-12.98,7.71-28.94,11.56-47.86,11.56s-35.76-3.79-48.87-11.35c-13.12-7.57-22.99-18.39-29.61-32.45-6.63-14.06-9.94-30.69-9.94-49.89v-126.55c0-7.57-1.42-12.5-4.26-14.8-2.84-2.29-8.18-4.26-16.02-5.88v-8.11h59.22v8.11c-7.85,1.62-13.18,3.59-16.02,5.88-2.84,2.3-4.26,7.24-4.26,14.8v115.6c0,28.13,5.27,50.16,15.82,66.11,10.55,15.96,29.33,23.93,56.38,23.93,24.88,0,42.79-7.23,53.74-21.7,10.95-14.46,16.43-34.81,16.43-61.04v-122.9Z"/>
    <path class="cls-1" d="M2788.62,148.53l19.06,180.9c1.08,8.92,3.17,15.28,6.29,19.06,3.11,3.79,8.45,6.36,16.02,7.71v8.11h-59.22v-8.11c8.38-2.16,13.72-4.8,16.02-7.91,2.29-3.11,2.9-9.53,1.83-19.27l-19.87-195.91h1.62l-83.55,231.19h-12.57l-85.58-232.82h2.43l-17.03,199.56c-.81,9.2.47,15.15,3.85,17.85,3.38,2.71,8.99,5.14,16.83,7.3v8.11h-59.22v-8.11c7.84-1.35,13.65-3.72,17.44-7.1,3.79-3.38,5.95-8.85,6.49-16.42l15.41-178.06c.81-9.46.06-16.09-2.23-19.88-2.3-3.78-7.24-6.22-14.8-7.3v-8.11h46.64l82.34,226.73-6.09-2.03,80.72-224.7h46.24v8.11c-7.3,1.08-12.44,3.18-15.41,6.29-2.98,3.11-4.2,8.05-3.65,14.8Z"/>
  </g>
</svg>