<?xml version="1.0" encoding="UTF-8"?>
<svg id="Layer_1" data-name="Layer 1" xmlns="http://www.w3.org/2000/svg" viewBox="0 0 1987.8 1375.95">
  <defs>
    <style>
      .cls-1 {
        fill: #f5f1ed;
      }
    </style>
  </defs>
  <g>
    <path class="cls-1" d="M1277.7,463.17l-2.99-4.28-91.06-130.35-3.48-4.41-5.53-7c-3.79,1.27-7.57,2.64-11.26,4.13-.7.28-1.4.56-2.1.85-4.09,1.65-8.11,3.44-12.06,5.34-11.71,5.58-22.85,12.16-33.33,19.59-18.86,13.35-35.59,29.51-49.55,47.88-1.22,1.58-2.41,3.2-3.57,4.84l-.14-.18-3.6-4.38-.24-.28-38.57-48.65c-5.04-6.35-12.35-10.63-20.27-12.07-1.92-.35-3.86-.52-5.83-.52h-178.16c3.04-4.8,6.25-9.46,9.67-13.99,38.43-51.12,99.57-84.22,168.29-84.22,64.2,0,121.77,28.89,160.4,74.37.55-.22,1.09-.45,1.62-.67.71-.29,1.43-.57,2.13-.87,2.63-1.05,5.37-2.08,8.21-3.09-40.87-49.95-102.96-81.89-172.36-81.89-75.9,0-143.05,38.19-183.25,96.37-3.15,4.55-6.13,9.21-8.93,13.99h-55.6c-11.39,0-19.6,11.19-15.08,21.62,3.51,8.1,9.91,19.06,20.97,27.63h-28.22c-11.4,0-19.61,11.21-15.1,21.64,6.16,14.2,21.24,37.26,54.76,40.66,1.39,4.49,4,11.4,8.55,18.65,2.15,26.86,9.09,52.38,19.96,75.72,2.55,5.46,5.3,10.8,8.27,16.01,38.31,67.38,110.76,112.92,193.66,112.92,66.32,0,125.96-29.16,166.77-75.33,3.5-3.95,6.86-8.03,10.06-12.24.35-.43.69-.88,1.02-1.33.1-.13.2-.27.31-.42.38-.5.73-1.01,1.08-1.53,5.47-8.35,6.65-18.8,3.9-28.4-.64-2.28-1.34-4.55-2.07-6.8-7.19-22.05-18.08-42.43-31.91-60.44,6.9-1.61,14.07-2.45,21.45-2.45,12.69,0,24.81,2.48,35.9,6.97,3.89,1.58,7.65,3.4,11.28,5.46,2.63,1.48,5.18,3.09,7.65,4.81.03.01.04.01.06.06,4.02,2.76,7.81,5.83,11.32,9.22.11.07,3.76,3.51,5.69,5.33,1.04.98,2.28,1.76,3.68,2.08,3.26.73,5.06-1.19,7.18-2.78,1.16-.92,2.31-1.87,3.44-2.84.08-.04.15-.1.24-.22,8.55-7.21,16.35-15.29,23.31-24.11h.03c1.15-1.51,2.29-3.01,3.41-4.53,3.41-4.69,3.65-11.18.1-15.75-.03-.04-.07-.07-.1-.11ZM743.51,349.92c-.6-1.37,1.11-2.67,2.63-2.67h247.97c.73,0,1.43.03,2.14.13,5.18.57,10.06,3.23,13.32,7.36l42.38,53.39,2.29,2.88s-.01.01-.01.04l.48.62c-.77,1.22-1.54,2.46-2.28,3.69-2.21,3.64-4.31,7.35-6.28,11.12-3.36,6.31-6.41,12.8-9.14,19.45l-1.86-2.36-11.78-15.11-7.79-9.99-11.12-14.27-6.63-8.51c-1.52-1.94-3.26-3.69-5.13-5.23-4.02-3.29-8.77-5.6-13.85-6.73-2.29-.5-4.67-.78-7.05-.78-.28,0-177.15-.1-177.43-.1-.42,0-.83,0-1.23-.03-4.45-.06-8.53-.52-12.3-1.32-21.08-4.42-31.87-19.01-37.31-31.58ZM1243.07,496.54c-.49.43-.95.84-1.44,1.2-.9-.9-1.8-1.75-2.73-2.6-3.26-3.04-6.7-5.85-10.33-8.46-4.55-3.27-9.35-6.21-14.37-8.79-3.74-1.9-7.58-3.6-11.56-5.08-11.88-4.41-24.74-6.83-38.14-6.83-4.32,0-8.58.27-12.76.74-1.05.13-2.08.25-3.11.41-5.2.76-10.28,1.87-15.21,3.33-1.12.34-2.22.69-3.33,1.05-.55,1.43-1.01,2.88-1.39,4.37-.59,2.31-.95,4.67-1.13,7.05,16.84,19.94,29.65,43.38,37.13,69.07.34,1.13.66,2.27.97,3.4,1.2,5.95-.08,12.28-3.93,17.35-1.76,2.34-3.58,4.63-5.44,6.88-3.88,4.7-7.95,9.22-12.21,13.57-38.21,38.96-91.43,63.18-150.19,63.18-82.47,0-154.02-47.68-188.5-116.93-2.6-5.19-4.98-10.49-7.12-15.92-5.5-13.78-9.57-28.26-12.05-43.29,7.25,5.99,16.61,10.93,28.55,13.19,2.11.42,4.3.73,6.58.97.64,2.1,1.55,4.71,2.81,7.67,6.91,16.17,24.09,41.96,63.56,41.96h130.74c.59,0,1.18-.08,1.72-.24,2.91-.74,5.06-3.4,5.06-6.55s-2.27-5.97-5.34-6.63c-.46-.1-.95-.15-1.44-.15h-130.74c-33.93,0-47.25-22.99-52-35.61h141.61c3.23,0,6.17-2.18,6.83-5.36.9-4.35-2.42-8.2-6.65-8.2h-147.73c-2.11,0-4.14-.08-6.09-.27-21.01-1.82-33.13-13.01-39.96-23.57-2.76-4.24-4.66-8.38-5.95-11.78h161.96c3.67,0,6.95-2.76,7.14-6.42.18-3.9-2.91-7.14-6.76-7.14h-168.43c-30.01-.11-44.06-17.95-50.56-32.93-.6-1.36,1.11-2.67,2.64-2.67h247.97c2.71,0,5.4.59,7.85,1.69,2.53,1.12,4.83,2.78,6.69,4.88.27.29.53.62.78.94,2.56,3.29,5.68,7.29,9.23,11.84.07.1.14.18.21.28,9.44,12.12,21.9,28.07,34.89,44.73,3.37,4.31,6.79,8.69,10.2,13.07,1.5-5.27,3.19-10.47,5.09-15.54,3.41-9.28,7.48-18.24,12.13-26.88,2-3.72,4.11-7.37,6.34-10.95,3.11-5.05,6.42-9.95,9.93-14.7,17.66-22.22,36.57-38.53,50.24-48.81,13.82-9.64,28.82-17.66,44.74-23.78l9.12,13.01,29.86,42.59,57.59,82.15c-6.86,9.39-14.8,17.96-23.6,25.53Z"/>
    <path class="cls-1" d="M1439.75,445.92l-113.77-27.67c-5.81-71.25-34.05-137.95-81.31-191.78l48.69-79.98-79.98,48.69c-53.84-47.25-120.5-75.49-191.76-81.31L993.92,0l-27.7,113.86c-71.25,5.82-137.92,34.07-191.76,81.31l-79.98-48.69,48.69,79.98c-47.25,53.84-75.51,120.52-81.31,191.77l-113.8,27.69,113.8,27.67c5.81,71.25,34.05,137.93,81.33,191.78l-48.7,79.98,80-48.69c53.84,47.26,120.5,75.51,191.76,81.31l27.69,113.8,27.69-113.8c71.25-5.81,137.92-34.05,191.76-81.31l80,48.69-48.69-80c47.26-53.84,75.51-120.53,81.31-191.78l113.77-27.66ZM1313.07,476.73c-6.23,65.67-32.28,127.13-75.28,177.34-5.44,6.37-11.18,12.56-17.17,18.55-5.99,5.99-12.19,11.72-18.55,17.17-50.21,43.01-111.66,69.06-177.33,75.28-9.53.91-13.32,1.44-13.32,1.44l-2.99,12.3-14.51,59.68-14.52-59.68-2.99-12.3s-3.78-.53-13.31-1.44c-65.67-6.23-127.12-32.28-177.33-75.28-6.37-5.44-12.56-11.18-18.55-17.17-5.99-5.99-11.71-12.17-17.17-18.54-42.99-50.21-69.06-111.67-75.28-177.36-.91-9.51-1.44-13.31-1.44-13.31l-12.3-2.99-59.7-14.51,59.7-14.52,12.3-2.99s.53-3.78,1.44-13.31c6.23-65.67,32.29-127.13,75.28-177.34,5.46-6.37,11.18-12.55,17.17-18.54,5.99-5.99,12.17-11.71,18.54-17.17,50.2-42.99,111.66-69.06,177.33-75.28,4.38-.42,8.79-.74,13.21-.98l.13-.52,2.46-10.16-2.46,10.16h-.01l2.48-10.16.5-2.08,14.54-59.75,14.52,59.75.87,3.54,2.11,8.7.13.52c4.42.24,8.83.56,13.21.98,65.67,6.23,127.13,32.29,177.33,75.28,6.37,5.46,12.55,11.18,18.54,17.17,5.99,5.99,11.72,12.19,17.17,18.55,43.01,50.21,69.06,111.66,75.28,177.33.81,8.6,1.41,13.31,1.41,13.31l12.33,2.99,59.67,14.52-59.67,14.51-12.33,2.99s-.6,4.7-1.41,13.31Z"/>
  </g>
  <g>
    <path class="cls-1" d="M50.71,1206.54H0v-6.99c4.9-1.4,8.68-2.8,11.37-4.2,2.68-1.4,4.9-3.55,6.64-6.47,1.75-2.91,3.67-7.17,5.77-12.76l67.85-180.81h13.99l67.5,183.61c1.86,4.9,3.55,8.63,5.07,11.19,1.51,2.57,3.5,4.49,5.95,5.77,2.45,1.28,5.89,2.51,10.32,3.67v6.99h-52.46v-6.99c7.46-1.16,12.35-3.09,14.69-5.77,2.33-2.68,2.21-7.28-.35-13.82l-61.9-170.32h2.8l-61.55,169.27c-2.8,7.69-2.8,12.76,0,15.21,2.8,2.45,7.81,4.26,15.04,5.42v6.99ZM151.08,1134.15H50.01v-11.89h101.07v11.89Z"/>
    <path class="cls-1" d="M283.97,995.31v186.4c0,6.53,1.22,10.79,3.67,12.77,2.45,1.98,7.05,3.67,13.81,5.07v6.99h-51.06v-6.99c6.76-1.4,11.37-3.09,13.81-5.07,2.45-1.98,3.67-6.24,3.67-12.77v-161.57c0-6.53-1.22-10.78-3.67-12.76-2.45-1.98-7.05-3.67-13.81-5.07v-7h33.57ZM280.47,1109.32v-10.14l34.27-1.4c16.32-.7,29.55-4.43,39.69-11.19,10.14-6.76,15.21-18.42,15.21-34.97,0-10.95-2.68-19.64-8.04-26.05-5.37-6.41-12.71-11.07-22.03-13.99-9.33-2.91-19.82-4.6-31.48-5.07l-27.63-1.05v-10.14h30.08c15.62,0,29.14,1.87,40.57,5.6,11.42,3.73,20.34,9.56,26.75,17.49,6.41,7.93,9.62,18.42,9.62,31.47s-3.27,23.67-9.79,32.53c-6.53,8.86-15.27,15.56-26.23,20.11-10.96,4.55-23.2,6.82-36.72,6.82h-34.27ZM328.74,1106.52l15.74-6.99,44.76,71.69c5.36,8.63,10.2,15.21,14.51,19.76,4.31,4.55,9.85,7.41,16.61,8.57v6.99h-30.43l-61.2-100.02Z"/>
    <path class="cls-1" d="M457.78,995.31h81.14v9.44h-46.16c-8.63,0-15.21,2.62-19.76,7.87-4.55,5.25-7.29,13-8.22,23.26h-6.99v-40.57ZM541.71,1181.71c0,6.53,1.22,10.79,3.67,12.77,2.45,1.98,7.05,3.67,13.81,5.07v6.99h-51.06v-6.99c6.76-1.4,11.37-3.09,13.81-5.07,2.45-1.98,3.67-6.24,3.67-12.77v-186.4h16.09v186.4ZM609.56,995.31v40.57h-6.99c-.94-10.26-3.67-18.01-8.22-23.26-4.55-5.25-11.14-7.87-19.76-7.87h-46.16v-9.44h81.14Z"/>
    <path class="cls-1" d="M825.34,1020.14c0-6.53-1.22-10.78-3.67-12.76-2.45-1.98-7.05-3.67-13.81-5.07v-7h47.91v7c-6.76,1.4-11.36,3.09-13.81,5.07-2.45,1.98-3.67,6.24-3.67,12.76v108.07c0,16.56-2.92,31.01-8.74,43.36-5.83,12.36-14.34,21.86-25.53,28.5-11.19,6.64-24.95,9.97-41.27,9.97s-30.84-3.27-42.14-9.79c-11.31-6.53-19.82-15.85-25.53-27.98-5.72-12.12-8.57-26.46-8.57-43.02v-109.11c0-6.53-1.22-10.78-3.67-12.76-2.45-1.98-7.05-3.67-13.81-5.07v-7h51.06v7c-6.77,1.4-11.37,3.09-13.81,5.07-2.45,1.98-3.67,6.24-3.67,12.76v99.67c0,24.25,4.55,43.25,13.64,57.01,9.09,13.76,25.29,20.63,48.61,20.63,21.45,0,36.9-6.24,46.34-18.71,9.44-12.47,14.16-30.02,14.16-52.63v-105.97Z"/>
    <path class="cls-1" d="M944.94,1206.54h-50.71v-6.99c4.9-1.4,8.68-2.8,11.37-4.2,2.68-1.4,4.9-3.55,6.64-6.47,1.75-2.91,3.67-7.17,5.77-12.76l67.85-180.81h13.99l67.5,183.61c1.86,4.9,3.55,8.63,5.07,11.19,1.52,2.57,3.5,4.49,5.95,5.77,2.45,1.28,5.89,2.51,10.32,3.67v6.99h-52.46v-6.99c7.46-1.16,12.35-3.09,14.69-5.77,2.33-2.68,2.21-7.28-.35-13.82l-61.9-170.32h2.8l-61.55,169.27c-2.8,7.69-2.8,12.76,0,15.21,2.8,2.45,7.81,4.26,15.04,5.42v6.99ZM1045.31,1134.15h-101.07v-11.89h101.07v11.89Z"/>
    <path class="cls-1" d="M1178.2,995.31v186.4c0,6.53,1.22,10.79,3.67,12.77,2.45,1.98,7.05,3.67,13.82,5.07v6.99h-51.06v-6.99c6.76-1.4,11.36-3.09,13.81-5.07,2.45-1.98,3.67-6.24,3.67-12.77v-161.57c0-6.53-1.23-10.78-3.67-12.76-2.45-1.98-7.05-3.67-13.81-5.07v-7h33.57ZM1174.71,1109.32v-10.14l34.27-1.4c16.32-.7,29.55-4.43,39.7-11.19,10.14-6.76,15.21-18.42,15.21-34.97,0-10.95-2.68-19.64-8.04-26.05-5.36-6.41-12.71-11.07-22.03-13.99-9.33-2.91-19.82-4.6-31.47-5.07l-27.63-1.05v-10.14h30.07c15.62,0,29.14,1.87,40.57,5.6,11.42,3.73,20.34,9.56,26.75,17.49,6.41,7.93,9.62,18.42,9.62,31.47s-3.27,23.67-9.79,32.53c-6.53,8.86-15.27,15.56-26.23,20.11-10.96,4.55-23.2,6.82-36.72,6.82h-34.27ZM1222.97,1106.52l15.74-6.99,44.76,71.69c5.36,8.63,10.2,15.21,14.51,19.76,4.31,4.55,9.85,7.41,16.61,8.57v6.99h-30.43l-61.2-100.02Z"/>
    <path class="cls-1" d="M1404.82,1020.14v161.57c0,6.53,1.22,10.79,3.67,12.77,2.45,1.98,7.05,3.67,13.82,5.07v6.99h-51.06v-6.99c6.76-1.4,11.36-3.09,13.81-5.07,2.45-1.98,3.67-6.24,3.67-12.77v-161.57c0-6.53-1.23-10.78-3.67-12.76-2.45-1.98-7.05-3.67-13.81-5.07v-7h51.06v7c-6.77,1.4-11.37,3.09-13.82,5.07-2.45,1.98-3.67,6.24-3.67,12.76Z"/>
    <path class="cls-1" d="M1646.82,1020.14c0-6.53-1.23-10.78-3.67-12.76-2.45-1.98-7.05-3.67-13.82-5.07v-7h47.91v7c-6.76,1.4-11.36,3.09-13.81,5.07-2.45,1.98-3.67,6.24-3.67,12.76v108.07c0,16.56-2.92,31.01-8.74,43.36-5.83,12.36-14.34,21.86-25.53,28.5-11.19,6.64-24.95,9.97-41.27,9.97s-30.83-3.27-42.14-9.79c-11.31-6.53-19.82-15.85-25.53-27.98-5.72-12.12-8.57-26.46-8.57-43.02v-109.11c0-6.53-1.23-10.78-3.67-12.76-2.45-1.98-7.05-3.67-13.81-5.07v-7h51.06v7c-6.77,1.4-11.37,3.09-13.82,5.07-2.45,1.98-3.67,6.24-3.67,12.76v99.67c0,24.25,4.55,43.25,13.64,57.01,9.09,13.76,25.29,20.63,48.61,20.63,21.45,0,36.9-6.24,46.34-18.71,9.44-12.47,14.16-30.02,14.16-52.63v-105.97Z"/>
    <path class="cls-1" d="M1952.13,1020.49l16.44,155.98c.93,7.69,2.74,13.17,5.42,16.44,2.68,3.27,7.28,5.48,13.82,6.64v6.99h-51.06v-6.99c7.22-1.86,11.83-4.14,13.81-6.82,1.98-2.68,2.5-8.22,1.57-16.61l-17.14-168.92h1.4l-72.04,199.34h-10.84l-73.79-200.74h2.1l-14.69,172.06c-.7,7.93.4,13.06,3.32,15.39,2.91,2.34,7.75,4.43,14.51,6.3v6.99h-51.06v-6.99c6.76-1.16,11.77-3.2,15.04-6.12,3.26-2.91,5.13-7.63,5.6-14.16l13.29-153.53c.7-8.16.06-13.87-1.93-17.14-1.98-3.26-6.24-5.36-12.76-6.29v-7h40.22l71,195.5-5.25-1.75,69.6-193.75h39.87v7c-6.3.93-10.73,2.74-13.29,5.42-2.57,2.68-3.62,6.94-3.15,12.76Z"/>
  </g>
  <g>
    <path class="cls-1" d="M212.78,1374.9v-63.09h8.41v63.09h-8.41ZM217.69,1374.9v-7.36h19.63c2.63,0,4.92-.63,6.88-1.89,1.96-1.25,2.94-3.55,2.94-6.87,0-3.15-.93-5.35-2.8-6.57-1.87-1.23-4.21-1.84-7.01-1.84h-19.63v-7.36h16.47c2.69,0,4.91-.66,6.66-1.97,1.75-1.32,3.07-3.04,3.94-5.17.88-2.13,1.32-4.43,1.32-6.88,0-3.68-.99-6.23-2.98-7.67-1.99-1.43-4.73-2.15-8.24-2.15h-17.17v-7.36h17.17c6.49,0,11.38,1.42,14.68,4.25,3.3,2.83,4.95,7.14,4.95,12.92,0,2.34-.38,4.66-1.14,6.97-.76,2.31-1.91,4.41-3.46,6.31-1.55,1.9-3.46,3.43-5.74,4.6l-.44-1.75c3.8.7,6.72,2.25,8.76,4.65,2.04,2.39,3.07,5.4,3.07,9.02,0,2.69-.58,5.26-1.75,7.71-1.17,2.45-3.07,4.47-5.69,6.04-2.63,1.58-6.1,2.37-10.43,2.37h-19.98Z"/>
    <path class="cls-1" d="M274.11,1374.9v-63.09h8.41v63.09h-8.41ZM279.02,1319.17v-7.36h35.05v7.36h-35.05ZM279.02,1345.46v-7.36h30.14v7.36h-30.14ZM279.02,1374.9v-7.36h36.1v7.36h-36.1Z"/>
    <path class="cls-1" d="M333.34,1374.9v-63.09h7.01l36.27,38.29v11.83l-37.15-39.17,2.28-.96v53.1h-8.41ZM372.6,1374.9v-63.09h8.41v63.09h-8.41Z"/>
    <path class="cls-1" d="M403.09,1311.81h8.41v63.09h-8.41v-63.09Z"/>
    <path class="cls-1" d="M430.07,1343.36c0-6.54,1.28-12.25,3.85-17.13s6.28-8.67,11.13-11.39c4.85-2.72,10.72-4.08,17.61-4.08,3.15,0,5.96.25,8.41.75,2.45.49,4.56,1.18,6.31,2.06v8.06h-.7c-1.58-.82-3.56-1.55-5.96-2.19-2.39-.64-5.08-.96-8.06-.96-7.36,0-13.17,2-17.44,6s-6.39,10.3-6.39,18.88c0,5.84.93,10.62,2.8,14.32,1.87,3.71,4.53,6.46,7.97,8.24,3.45,1.78,7.56,2.67,12.35,2.67,1.75,0,3.45-.16,5.08-.48,1.64-.32,3.15-.68,4.56-1.09l-1.93,3.85v-27.86h8.41v29.44c-1.93,1.05-4.31,1.9-7.14,2.54-2.83.64-5.83.96-8.98.96-7.13,0-13.06-1.36-17.79-4.08-4.73-2.72-8.27-6.51-10.6-11.39-2.34-4.88-3.5-10.59-3.5-17.13Z"/>
    <path class="cls-1" d="M498.77,1374.9v-63.09h7.01l36.27,38.29v11.83l-37.15-39.17,2.28-.96v53.1h-8.41ZM538.02,1374.9v-63.09h8.41v63.09h-8.41Z"/>
    <path class="cls-1" d="M568.51,1311.81h8.41v63.09h-8.41v-63.09Z"/>
    <path class="cls-1" d="M591.64,1311.81h49.07v7.36h-20.33v55.72h-8.41v-55.72h-20.33v-7.36Z"/>
    <path class="cls-1" d="M646.67,1374.9l7.01-42.06c.58-3.5,1.45-6.6,2.58-9.29,1.14-2.69,2.67-4.96,4.6-6.83s4.41-3.27,7.45-4.21c3.04-.93,6.75-1.41,11.13-1.41,2.1,0,4.22.1,6.35.31,2.13.21,4.34.57,6.62,1.1l.18,1.05c-.18,1.17-.31,2.63-.39,4.38-.09,1.75-.13,3.5-.13,5.26v51.7h-8.41v-51.87c0-1.17.01-2.26.04-3.29.03-1.02.13-2,.31-2.93l1.4,2.54c-.76-.35-1.68-.58-2.76-.7s-2.26-.17-3.55-.17c-3.85,0-6.91.52-9.16,1.57-2.25,1.05-3.94,2.63-5.08,4.73-1.14,2.1-2,4.79-2.59,8.06l-7.01,42.06h-8.59ZM655.43,1355.63v-7.36h31.72v7.36h-31.72Z"/>
    <path class="cls-1" d="M711.33,1364.56h.7c1.4.76,2.99,1.42,4.78,1.97,1.78.55,3.74.98,5.87,1.27,2.13.29,4.42.44,6.88.44,2.8,0,5.3-.28,7.49-.84,2.19-.55,3.91-1.49,5.17-2.8,1.25-1.31,1.88-3.14,1.88-5.47,0-2.8-.8-4.82-2.41-6.05-1.61-1.22-4.02-2.13-7.23-2.72l-7.71-1.4c-2.92-.52-5.61-1.47-8.06-2.85-2.45-1.37-4.41-3.28-5.87-5.74-1.46-2.45-2.19-5.55-2.19-9.29,0-4.67,1.1-8.51,3.29-11.52,2.19-3.01,5.26-5.23,9.2-6.66s8.54-2.15,13.8-2.15c2.46,0,4.89.24,7.32.7,2.42.47,4.42,1.06,6,1.76v8.06h-.7c-1.4-.7-3.17-1.35-5.3-1.93-2.13-.58-4.69-.87-7.67-.87-3.27,0-6.23.41-8.89,1.22s-4.76,2.13-6.31,3.95c-1.55,1.81-2.32,4.18-2.32,7.1,0,3.68.96,6.25,2.89,7.71,1.93,1.46,4.59,2.51,7.97,3.15l7.71,1.4c2.98.53,5.58,1.43,7.8,2.72s3.96,2.99,5.21,5.13c1.26,2.13,1.88,4.78,1.88,7.93,0,2.86-.56,5.37-1.66,7.53-1.11,2.16-2.67,3.96-4.69,5.39-2.02,1.43-4.43,2.5-7.23,3.2-2.8.7-5.93,1.05-9.38,1.05-2.45,0-4.77-.15-6.97-.44-2.19-.29-4.24-.67-6.13-1.14-1.9-.46-3.61-.99-5.13-1.57v-8.24Z"/>
    <path class="cls-1" d="M798.25,1374.9v-63.09h8.41v63.09h-8.41ZM803.16,1374.9v-7.36h19.63c2.63,0,4.92-.63,6.88-1.89,1.96-1.25,2.94-3.55,2.94-6.87,0-3.15-.93-5.35-2.8-6.57-1.87-1.23-4.21-1.84-7.01-1.84h-19.63v-7.36h16.47c2.69,0,4.91-.66,6.66-1.97,1.75-1.32,3.07-3.04,3.94-5.17s1.32-4.43,1.32-6.88c0-3.68-.99-6.23-2.98-7.67-1.99-1.43-4.73-2.15-8.24-2.15h-17.17v-7.36h17.17c6.49,0,11.38,1.42,14.68,4.25,3.3,2.83,4.95,7.14,4.95,12.92,0,2.34-.38,4.66-1.14,6.97-.76,2.31-1.91,4.41-3.46,6.31-1.55,1.9-3.46,3.43-5.74,4.6l-.44-1.75c3.8.7,6.72,2.25,8.76,4.65,2.04,2.39,3.07,5.4,3.07,9.02,0,2.69-.58,5.26-1.75,7.71s-3.07,4.47-5.69,6.04c-2.63,1.58-6.1,2.37-10.43,2.37h-19.98Z"/>
    <path class="cls-1" d="M859.58,1374.9v-63.09h8.41v63.09h-8.41ZM864.49,1319.17v-7.36h35.05v7.36h-35.05ZM864.49,1345.46v-7.36h30.14v7.36h-30.14ZM864.49,1374.9v-7.36h36.1v7.36h-36.1Z"/>
    <path class="cls-1" d="M918.81,1374.9v-63.09h7.01l36.27,38.29v11.83l-37.15-39.17,2.28-.96v53.1h-8.41ZM958.07,1374.9v-63.09h8.41v63.09h-8.41Z"/>
    <path class="cls-1" d="M988.56,1311.81h8.41v63.09h-8.41v-63.09Z"/>
    <path class="cls-1" d="M1015.54,1343.36c0-6.54,1.28-12.25,3.85-17.13,2.57-4.88,6.28-8.67,11.13-11.39,4.85-2.72,10.72-4.08,17.61-4.08,3.15,0,5.96.25,8.41.75,2.45.49,4.56,1.18,6.31,2.06v8.06h-.7c-1.58-.82-3.56-1.55-5.96-2.19-2.39-.64-5.08-.96-8.06-.96-7.36,0-13.17,2-17.44,6-4.26,4-6.39,10.3-6.39,18.88,0,5.84.93,10.62,2.8,14.32,1.87,3.71,4.53,6.46,7.97,8.24,3.45,1.78,7.56,2.67,12.35,2.67,1.75,0,3.45-.16,5.08-.48,1.64-.32,3.15-.68,4.56-1.09l-1.93,3.85v-27.86h8.41v29.44c-1.93,1.05-4.31,1.9-7.14,2.54-2.83.64-5.83.96-8.98.96-7.13,0-13.06-1.36-17.79-4.08-4.73-2.72-8.27-6.51-10.6-11.39-2.34-4.88-3.5-10.59-3.5-17.13Z"/>
    <path class="cls-1" d="M1084.24,1374.9v-63.09h7.01l36.27,38.29v11.83l-37.15-39.17,2.28-.96v53.1h-8.41ZM1123.49,1374.9v-63.09h8.41v63.09h-8.41Z"/>
    <path class="cls-1" d="M1153.98,1311.81h8.41v63.09h-8.41v-63.09Z"/>
    <path class="cls-1" d="M1177.11,1311.81h49.07v7.36h-20.33v55.72h-8.41v-55.72h-20.33v-7.36Z"/>
    <path class="cls-1" d="M1232.14,1374.9l7.01-42.06c.58-3.5,1.45-6.6,2.58-9.29s2.67-4.96,4.6-6.83c1.93-1.87,4.41-3.27,7.45-4.21,3.03-.93,6.74-1.41,11.13-1.41,2.1,0,4.22.1,6.35.31,2.13.21,4.34.57,6.62,1.1l.17,1.05c-.17,1.17-.3,2.63-.39,4.38-.09,1.75-.13,3.5-.13,5.26v51.7h-8.41v-51.87c0-1.17.01-2.26.04-3.29.03-1.02.13-2,.31-2.93l1.4,2.54c-.76-.35-1.68-.58-2.76-.7s-2.27-.17-3.55-.17c-3.85,0-6.91.52-9.16,1.57-2.25,1.05-3.94,2.63-5.08,4.73-1.14,2.1-2,4.79-2.59,8.06l-7.01,42.06h-8.59ZM1240.9,1355.63v-7.36h31.72v7.36h-31.72Z"/>
    <path class="cls-1" d="M1292.25,1311.81h49.07v7.36h-20.33v55.72h-8.41v-55.72h-20.33v-7.36Z"/>
    <path class="cls-1" d="M1356.03,1374.9v-63.09h8.41v63.09h-8.41ZM1360.94,1319.17v-7.36h35.04v7.36h-35.04ZM1360.94,1345.46v-7.36h30.14v7.36h-30.14ZM1360.94,1374.9v-7.36h36.1v7.36h-36.1Z"/>
    <path class="cls-1" d="M1415.26,1374.9v-63.09h7.01l22.26,34.7h-3.5l22.26-34.7h7.01v63.09h-8.41v-49.33l1.84.53-17.61,27.07h-6.66l-17.61-27.07,1.84-.53v49.33h-8.41Z"/>
    <path class="cls-1" d="M1520.05,1374.9v-63.09h8.41v63.09h-8.41ZM1524.97,1353.87v-7.36h13.67c3.5,0,6.36-.74,8.59-2.23,2.22-1.49,3.85-3.47,4.91-5.96,1.05-2.48,1.57-5.24,1.57-8.28,0-4.03-1.05-6.85-3.15-8.45-2.1-1.61-4.91-2.41-8.41-2.41h-17.17v-7.36h17.52c5.96,0,10.78,1.51,14.46,4.51,3.68,3.01,5.52,7.58,5.52,13.71,0,2.86-.45,5.71-1.35,8.54-.91,2.83-2.32,5.4-4.25,7.71-1.93,2.31-4.4,4.14-7.4,5.52-3.01,1.37-6.62,2.06-10.82,2.06h-13.67Z"/>
    <path class="cls-1" d="M1572.28,1374.9l7.01-42.06c.58-3.5,1.45-6.6,2.58-9.29,1.14-2.69,2.67-4.96,4.6-6.83,1.93-1.87,4.41-3.27,7.45-4.21,3.03-.93,6.74-1.41,11.13-1.41,2.1,0,4.22.1,6.35.31,2.13.21,4.34.57,6.62,1.1l.17,1.05c-.17,1.17-.3,2.63-.39,4.38-.09,1.75-.13,3.5-.13,5.26v51.7h-8.41v-51.87c0-1.17.01-2.26.04-3.29.03-1.02.13-2,.31-2.93l1.4,2.54c-.76-.35-1.68-.58-2.76-.7s-2.27-.17-3.55-.17c-3.85,0-6.91.52-9.16,1.57-2.25,1.05-3.94,2.63-5.08,4.73-1.14,2.1-2,4.79-2.59,8.06l-7.01,42.06h-8.59ZM1581.04,1355.63v-7.36h31.72v7.36h-31.72Z"/>
    <path class="cls-1" d="M1639.74,1374.9v-63.09h8.41v63.09h-8.41ZM1644.65,1355.98v-7.71h15.07c3.27,0,6-.79,8.19-2.36,2.19-1.58,3.82-3.65,4.91-6.22,1.08-2.57,1.62-5.32,1.62-8.24,0-4.21-1.12-7.3-3.37-9.29-2.25-1.99-5.21-2.98-8.9-2.98h-17.52v-7.36h17.87c4.21,0,7.86.76,10.95,2.28,3.09,1.52,5.49,3.74,7.18,6.66,1.7,2.92,2.54,6.49,2.54,10.69,0,3.92-.65,7.4-1.97,10.47-1.32,3.07-3.1,5.64-5.35,7.71-2.25,2.08-4.79,3.65-7.62,4.73-2.84,1.08-5.8,1.62-8.9,1.62h-14.72ZM1677.24,1374.9l-16.47-21.38,8.76-1.05,17.53,22.08v.35h-9.82Z"/>
    <path class="cls-1" d="M1702.83,1311.81h8.41v63.09h-8.41v-63.09Z"/>
    <path class="cls-1" d="M1725.96,1311.81h49.07v7.36h-20.33v55.72h-8.41v-55.72h-20.33v-7.36Z"/>
  </g>
</svg>